<?xml version="1.0" encoding="utf-8"?>
<!-- Generator: Adobe Illustrator 27.5.0, SVG Export Plug-In . SVG Version: 6.00 Build 0)  -->
<svg version="1.1" xmlns="http://www.w3.org/2000/svg" xmlns:xlink="http://www.w3.org/1999/xlink" x="0px" y="0px"
	 viewBox="0 0 750 500" style="enable-background:new 0 0 750 500;" xml:space="preserve">
<g id="Background_Simple">
	<g>
		<path style="fill:#92E3A9;" d="M723.98,262.873C713.812,167.584,644.064,86.155,550.652,60.61
			c-49.714-13.595-109.284-23.775-166.288-18.147C249.914,55.736,47.973,248.207,39.524,273.925
			C31.075,299.643,49.48,458.1,49.48,458.1h642.953c0,0,43.94-71.347,31.918-191.641C724.23,265.256,724.106,264.061,723.98,262.873
			z"/>
		<path style="opacity:0.7;fill:#FFFFFF;" d="M723.98,262.873C713.812,167.584,644.064,86.155,550.652,60.61
			c-49.714-13.595-109.284-23.775-166.288-18.147C249.914,55.736,47.973,248.207,39.524,273.925
			C31.075,299.643,49.48,458.1,49.48,458.1h642.953c0,0,43.94-71.347,31.918-191.641C724.23,265.256,724.106,264.061,723.98,262.873
			z"/>
	</g>
</g>
<g id="Floor_1_">
	<path style="fill:none;stroke:#263238;stroke-linecap:round;stroke-linejoin:round;stroke-miterlimit:10;" d="M733.645,455.517
		c0,0-59.012-2.487-72.501-2.816s-30.971,6.335-60.535,2.112c-29.563-4.223-63.35-4.223-101.36-5.631
		c-38.01-1.408-38.714-1.408-63.35-1.408s-64.054,7.743-113.326,0s-83.399-3.623-111.385-0.052
		c-27.986,3.571-48.494-3.952-67.803-3.006c-19.309,0.946-27.111-1.211-51.688,0.946c-24.577,2.157-30.267,0.704-38.714,0.704
		s-25.34,0-25.34,0"/>
</g>
<g id="Sun">
	<g>
		
			<ellipse transform="matrix(0.7071 -0.7071 0.7071 0.7071 124.7519 463.1871)" style="fill:none;stroke:#263238;stroke-linecap:round;stroke-linejoin:round;stroke-miterlimit:10;" cx="621.492" cy="81.005" rx="24.586" ry="24.586"/>
		<g>
			
				<line style="fill:none;stroke:#263238;stroke-linecap:round;stroke-linejoin:round;stroke-miterlimit:10;" x1="622.982" y1="42.264" x2="622.982" y2="50.459"/>
			
				<line style="fill:none;stroke:#263238;stroke-linecap:round;stroke-linejoin:round;stroke-miterlimit:10;" x1="622.982" y1="113.04" x2="622.982" y2="121.235"/>
		</g>
		<g>
			
				<line style="fill:none;stroke:#263238;stroke-linecap:round;stroke-linejoin:round;stroke-miterlimit:10;" x1="662.468" y1="81.75" x2="654.273" y2="81.75"/>
			
				<line style="fill:none;stroke:#263238;stroke-linecap:round;stroke-linejoin:round;stroke-miterlimit:10;" x1="591.692" y1="81.75" x2="583.496" y2="81.75"/>
		</g>
		<g>
			
				<line style="fill:none;stroke:#263238;stroke-linecap:round;stroke-linejoin:round;stroke-miterlimit:10;" x1="650.903" y1="53.829" x2="645.108" y2="59.624"/>
			
				<line style="fill:none;stroke:#263238;stroke-linecap:round;stroke-linejoin:round;stroke-miterlimit:10;" x1="600.856" y1="103.876" x2="595.061" y2="109.67"/>
		</g>
		<g>
			
				<line style="fill:none;stroke:#263238;stroke-linecap:round;stroke-linejoin:round;stroke-miterlimit:10;" x1="595.061" y1="53.829" x2="600.856" y2="59.624"/>
			
				<line style="fill:none;stroke:#263238;stroke-linecap:round;stroke-linejoin:round;stroke-miterlimit:10;" x1="645.108" y1="103.876" x2="650.903" y2="109.67"/>
		</g>
	</g>
</g>
<g id="Clouds">
	<path style="fill:none;stroke:#263238;stroke-linecap:round;stroke-linejoin:round;stroke-miterlimit:10;" d="M453.118,77.28
		c0,0-28.311-37.996-58.111-44.701c-29.801-6.705-46.191,13.41-49.171,23.096s-2.98,16.39-10.43,14.9
		c-7.45-1.49-20.861-11.175-32.781-2.98c-11.92,8.195-13.41,20.116-20.115,22.351c-6.705,2.235-21.605-5.96-30.546-2.98
		c-8.94,2.98-6.705,8.195-12.665,10.43c-5.96,2.235-12.665,1.49-15.645,2.235c-2.98,0.745-8.195,4.47-8.195,4.47h289.066
		c0,0-4.47-22.35-19.371-28.311C470.254,69.829,464.294,81.75,453.118,77.28z"/>
	<path style="fill:none;stroke:#263238;stroke-linecap:round;stroke-linejoin:round;stroke-miterlimit:10;" d="M170.397,114.384
		c0,0-12.737-17.094-26.144-20.111c-13.407-3.017-20.781,6.033-22.122,10.391c-1.341,4.357-1.341,7.374-4.693,6.704
		c-3.352-0.67-9.385-5.028-14.748-1.341c-5.363,3.687-6.033,9.05-9.05,10.055c-3.017,1.006-9.72-2.681-13.742-1.341
		c-4.022,1.341-3.017,3.687-5.698,4.693c-2.682,1.006-5.698,0.67-7.039,1.006c-1.341,0.335-3.687,2.011-3.687,2.011h130.049
		c0,0-2.011-10.055-8.715-12.737C178.106,111.032,175.424,116.395,170.397,114.384z"/>
</g>
<g id="Dunes">
	<g>
		<path style="fill:none;stroke:#263238;stroke-linecap:round;stroke-linejoin:round;stroke-miterlimit:10;" d="M732.5,300.978
			c0,0-202.279-135.781-231.843-148.451c-29.563-12.67-154.152,40.826-165.414,44.345c-11.262,3.52-74.613-21.117-89.394-23.932
			S21.307,308.086,21.307,308.086"/>
		<path style="fill:none;stroke:#263238;stroke-linecap:round;stroke-linejoin:round;stroke-miterlimit:10;" d="M354.75,206.252
			c-4.495-1.382-7.424-2.319-7.424-2.319"/>
		<path style="fill:none;stroke:#263238;stroke-linecap:round;stroke-linejoin:round;stroke-miterlimit:10;" d="M483.822,166.9
			c-21.146,15.27-76.042,51.682-86.58,50.442c-7.259-0.854-22.593-5.134-34.362-8.632"/>
		<path style="fill:none;stroke:#263238;stroke-linecap:round;stroke-linejoin:round;stroke-miterlimit:10;" d="M493.349,154.761
			c0,0,3.725,0.745-1.49,5.96c-0.39,0.39-1.178,1.046-2.31,1.925"/>
	</g>
</g>
<g id="Character_3">
	<path style="fill:none;stroke:#263238;stroke-linecap:round;stroke-linejoin:round;stroke-miterlimit:10;" d="M320.065,224.095
		c0,0,0.321-2.958-3.04-4.079"/>
	<g>
		<path style="fill:none;stroke:#263238;stroke-width:2;stroke-linecap:round;stroke-linejoin:round;stroke-miterlimit:10;" d="
			M575.339,237.685c0,0,11.204,76.62,35.057,98.305c23.853,21.685,61.672,5.774,64.497,13.427"/>
		<g>
			<g>
				<path style="fill:none;stroke:#263238;stroke-width:2;stroke-linecap:round;stroke-linejoin:round;stroke-miterlimit:10;" d="
					M636.254,363.856c0,0-12.294,27.32-11.474,36.335c0.82,9.016,16.392-4.918,19.124-27.047
					C646.635,351.016,636.254,363.856,636.254,363.856z"/>
				<path style="fill:none;stroke:#263238;stroke-width:2;stroke-linecap:round;stroke-linejoin:round;stroke-miterlimit:10;" d="
					M632.702,365.222c0,0-18.031,40.433-11.747,46.17c6.284,5.737,17.485-37.428,15.299-47.536
					C634.068,353.748,632.702,365.222,632.702,365.222z"/>
				<path style="fill:none;stroke:#263238;stroke-width:2;stroke-linecap:round;stroke-linejoin:round;stroke-miterlimit:10;" d="
					M635.708,366.042c0,0.82-9.562,40.16-4.371,44.258c5.191,4.098,15.026-27.866,12.021-39.887
					C640.352,358.392,635.708,366.042,635.708,366.042z"/>
			</g>
			<g>
				<g>
					<g>
						<path style="fill:#FFFFFF;stroke:#263238;stroke-linecap:round;stroke-linejoin:round;stroke-miterlimit:10;" d="
							M683.671,441.616c0,0,2.685,0.929,4.822,0.483c2.137-0.446,8.867-3.69,10.059-1.956c1.192,1.734-1.302,6.997-4.9,9.259
							c-3.598,2.262-8.322,4.938-11.087,5.529s-4.005,1.389-5.035,0.788c-1.031-0.601-1.875-3.357-1.875-3.357
							S683.003,444.547,683.671,441.616z"/>
						<path style="fill:#FFFFFF;stroke:#263238;stroke-linecap:round;stroke-linejoin:round;stroke-miterlimit:10;" d="
							M698.694,440.43c-0.215,1.384-1.159,3.566-4.5,6.047c-5.688,4.224-14.429,7.91-16.57,8.229
							c-0.306,0.046-0.591,0.106-0.863,0.172c0.235,0.371,0.494,0.684,0.768,0.843c1.031,0.601,2.271-0.197,5.035-0.788
							c2.765-0.592,7.489-3.268,11.087-5.529C697.074,447.253,699.49,442.394,698.694,440.43z"/>
					</g>
					<path style="fill:#263238;stroke:#263238;stroke-linecap:round;stroke-linejoin:round;stroke-miterlimit:10;" d="
						M670.796,393.44c0,0,1.609,7.034,4.142,15.305c2.533,8.27,5.505,26.647,5.919,27.773c0.414,1.126,1.682,1.213,2.33,1.699
						c0.648,0.486,1.492,3.243,1.638,3.871c0.146,0.628-1.965,6.006-3.557,7.7s-4.578,3.304-4.578,3.304s-3.395-3.437-4.105-5.945
						c-0.71-2.508-0.642-4.408-1.183-5.529c-0.541-1.122-6.397-14.602-8.212-20.112c-1.815-5.51-6.681-15.605-6.945-15.977
						C655.979,405.157,662.455,393.698,670.796,393.44z"/>
				</g>
				<g>
					<g>
						<path style="fill:#FFFFFF;stroke:#263238;stroke-linecap:round;stroke-linejoin:round;stroke-miterlimit:10;" d="
							M641.461,446.026c0,0,4.009,4.621,7.047,6.284c3.039,1.663,5.497,1.587,5.008,2.832c-0.489,1.245-2.382,2.534-6.946,2.675
							s-11.12-1.589-13.939-1.853c-2.82-0.264-5.761,1.233-7.087-1.889c-1.327-3.122,2.23-7.449,2.23-7.449L641.461,446.026z"/>
						<path style="fill:#FFFFFF;stroke:#263238;stroke-linecap:round;stroke-linejoin:round;stroke-miterlimit:10;" d="
							M653.517,455.142c0.134-0.341,0.04-0.581-0.219-0.787c-1.574,0.686-4.219,1.689-6.601,1.876
							c-3.681,0.29-11.301-1.759-15.536-2.331c-4.235-0.572-5.618,0.174-5.618,0.174c1.327,3.122,4.268,1.625,7.087,1.889
							c2.82,0.264,9.375,1.994,13.939,1.853C651.135,457.676,653.028,456.387,653.517,455.142z"/>
					</g>
					<path style="fill:#263238;stroke:#263238;stroke-linecap:round;stroke-linejoin:round;stroke-miterlimit:10;" d="
						M634.801,412.493c0,0-4.769,21.937-6.032,26.545c-1.263,4.608-2.389,7.981-2.192,8.678c0.197,0.697,0.4,1.569,0.4,1.569
						s3.692,0.061,6.671-0.206c2.979-0.268,8.378-1.841,8.378-1.841s1.147-2.671,0.939-3.719c-0.208-1.048-1.556-4.872-1.578-5.574
						c-0.022-0.702,8.16-25.908,8.16-25.908L634.801,412.493z"/>
				</g>
				<g>
					<path style="fill:#263238;stroke:#263238;stroke-linecap:round;stroke-linejoin:round;stroke-miterlimit:10;" d="
						M671.377,365.339c0,0,1.408-4.991,1.488-8.032c0.079-3.04-3.227-0.508-3.166,1.487
						C669.76,360.789,671.377,365.339,671.377,365.339z"/>
					<path style="fill:#FFFFFF;stroke:#263238;stroke-linecap:round;stroke-linejoin:round;stroke-miterlimit:10;" d="
						M677.324,358.385c0,0-1.708,0.921-2.848,0.522c-1.141-0.399-1.935-0.808-1.935-0.808l-2.293,1.633c0,0-0.25-5.287,0.227-6.691
						c0.477-1.404,0.64-1.756,2.548-1.815C674.931,351.168,677.324,358.385,677.324,358.385z"/>
					<path style="fill:#B0B0B0;stroke:#263238;stroke-linecap:round;stroke-linejoin:round;stroke-miterlimit:10;" d="
						M672.159,351.34c0,0-1.959,6.831-1.439,9.592c0.52,2.762,0.657,4.406,0.657,4.406s-2.826-1.562-4.299-4.294
						c-1.473-2.732,1.047-19.475,1.047-19.475l2.222,7.309L672.159,351.34z"/>
					<g>
						<path style="fill:#FFFFFF;stroke:#263238;stroke-linecap:round;stroke-linejoin:round;stroke-miterlimit:10;" d="
							M674.892,349.417c0,0-0.669,2.101,0.313,2.193c0.982,0.092,3.094,1.128,3.935,0.613c0.841-0.516,0.91-2.231,0.532-2.586
							C679.294,349.281,676.115,349.38,674.892,349.417z"/>
						<path style="fill:#FFFFFF;stroke:#263238;stroke-linecap:round;stroke-linejoin:round;stroke-miterlimit:10;" d="
							M674.514,351.702c0,0-0.822,1.501-0.106,2.173c0.715,0.672,3.604,1.451,4.46,1.077c0.856-0.374,0.273-2.729,0.273-2.729
							L674.514,351.702z"/>
						<path style="fill:#FFFFFF;stroke:#263238;stroke-linecap:round;stroke-linejoin:round;stroke-miterlimit:10;" d="
							M674.407,353.875c0,0-0.965,2.46-0.172,2.87c0.794,0.409,2.883,0.605,3.482,0.326c0.599-0.279,1.15-2.119,1.15-2.119
							S675.28,354.021,674.407,353.875z"/>
						<path style="fill:#FFFFFF;stroke:#263238;stroke-linecap:round;stroke-linejoin:round;stroke-miterlimit:10;" d="
							M674.236,356.745c0,0-1.014,0.899-0.212,1.569c0.802,0.67,3.054,0.513,3.301,0.072c0.247-0.442,0.393-1.314,0.393-1.314
							S675.208,357.322,674.236,356.745z"/>
						<path style="fill:#FFFFFF;stroke:#263238;stroke-linecap:round;stroke-linejoin:round;stroke-miterlimit:10;" d="
							M674.892,349.417c0,0-2.457-0.342-2.785,0.275c-0.328,0.618-0.668,3.666-0.299,4.349c0.368,0.683,1.238,0.743,1.918,0.288
							C674.407,353.875,674.892,349.417,674.892,349.417z"/>
					</g>
				</g>
				<path style="fill:#92E3A9;stroke:#263238;stroke-linecap:round;stroke-linejoin:round;stroke-miterlimit:10;" d="
					M666.146,313.483c0,0,2.77,8.514,3.731,14.651c0.961,6.137-2.548,29.756-2.376,35.339c0.173,5.583,2.572,8.4,2.229,9.759
					c-0.343,1.36-1.566,5.444-1.566,5.444l3.809,17.226c0,0-4.561,2.068-8.292,6.038c-3.731,3.97-8.769,9.328-8.769,9.328
					l0.171,11.75c0,0-7.177-1.512-12.429-3.084c-5.252-1.572-10.341-4.112-10.341-4.112l3.767-21.507c0,0,0.967-12.363-0.228-19.842
					c-1.195-7.479,0.951-19.108,1.909-25.496c0.959-6.389,0.699-21.027,3.114-30.159c2.415-9.132,4.281-11.117,4.281-11.117
					S656.432,304.798,666.146,313.483z"/>
				<g>
					<path style="fill:#FFFFFF;stroke:#263238;stroke-linecap:round;stroke-linejoin:round;stroke-miterlimit:10;" d="
						M664.745,275.807c0,0-4.332-2.54-7.739-2.677c-3.407-0.138-8.575,1.723-10.868,6.169c-2.293,4.446-2.647,8.71-2.628,9.317
						c0.019,0.607,10.272-5.786,15.785-8.266C664.809,277.871,666.145,277.83,664.745,275.807z"/>
					<g>
						<path style="fill:#FFFFFF;stroke:#263238;stroke-linecap:round;stroke-linejoin:round;stroke-miterlimit:10;" d="
							M645.557,295.844c0,0,7.115-5.689,11.775-8.263c4.66-2.575,10.958-3.255,11.38-5.334c0.422-2.079-0.787-5.809-3.966-6.44
							c-3.179-0.631-17.792,6.262-20.331,10.594C641.875,290.733,640.485,292.963,645.557,295.844z"/>
						<path style="fill:none;stroke:#263238;stroke-linecap:round;stroke-linejoin:round;stroke-miterlimit:10;" d="
							M645.557,295.844c0,0-0.658-5.57,10.129-10.4c10.788-4.83,10.914-8.601,10.914-8.601"/>
						<path style="fill:none;stroke:#263238;stroke-linecap:round;stroke-linejoin:round;stroke-miterlimit:10;" d="M642.8,293.134
							c0,0-0.01-4.253,6.904-8.599c6.914-4.346,9.26-7.092,9.26-7.092"/>
					</g>
					<path style="fill:#FFFFFF;stroke:#263238;stroke-linecap:round;stroke-linejoin:round;stroke-miterlimit:10;" d="
						M667.274,282.899c0,0,1.392,1.78,1.433,3.115c0.041,1.335,0.086,2.792,0.086,2.792s1.267,1.662,1.786,2.74
						c0.519,1.078-1.099,7.69-1.73,10.869c-0.631,3.179-2.592,2.632-2.592,2.632s1.866,1.401,1.893,2.25
						c0.026,0.85-0.631,3.179-2.179,4.199c-1.548,1.02-2.394,1.168-2.394,1.168s2.09,0.786,0.534,1.563
						c-1.556,0.777-4.724,0.511-9.037-1.422c-4.313-1.932-4.707-2.892-6.286-2.844s-2.755,1.3-3.734,1.088
						c-0.979-0.213-3.732-2.801-3.2-5.248c0.532-2.447,3.015-8.6,3.665-11.172c0.65-2.572,2.737-5.796,8.239-8.64
						S667.274,282.899,667.274,282.899z"/>
					<path style="fill:none;stroke:#263238;stroke-linecap:round;stroke-linejoin:round;stroke-miterlimit:10;" d="M656.809,286.382
						c0,0-2.108,6.506,0.479,7.641s5.316-1.015,7.224-2.168c1.909-1.153,4.281-3.049,4.281-3.049s0.213-0.979-0.086-2.792
						c-0.299-1.814-1.433-3.115-1.433-3.115S658.699,284.622,656.809,286.382z"/>
					<path style="fill:none;stroke:#263238;stroke-linecap:round;stroke-linejoin:round;stroke-miterlimit:10;" d="M667.39,286.662
						c0,0-2.462-1.018-4.094,1.22"/>
					<path style="fill:#263238;" d="M666.619,289.238c0.017,0.536-0.215,0.979-0.516,0.988c-0.302,0.009-0.56-0.418-0.576-0.954
						c-0.017-0.536,0.215-0.979,0.516-0.988C666.344,288.274,666.603,288.702,666.619,289.238z"/>
					<path style="fill:none;stroke:#263238;stroke-linecap:round;stroke-linejoin:round;stroke-miterlimit:10;" d="M656.211,294.543
						c0,0,1.678,7.118,3.582,9.733c1.904,2.615,5.155,1.663,5.155,1.663"/>
					<path style="fill:none;stroke:#263238;stroke-linecap:round;stroke-linejoin:round;stroke-miterlimit:10;" d="M668.235,290.403
						c0,0-1.682,4.548-4.889,6.956"/>
					<path style="fill:none;stroke:#263238;stroke-linecap:round;stroke-linejoin:round;stroke-miterlimit:10;" d="M652.562,290.524
						c0,0-2.731,9.928,0.481,15.54c3.212,5.612,8.326,5.94,8.326,5.94"/>
					<path style="fill:none;stroke:#263238;stroke-linecap:round;stroke-linejoin:round;stroke-miterlimit:10;" d="M648.884,309.109
						c0,0-2.294-3.453-3.143-7.316c-0.849-3.863,1.25-6.722,1.25-6.722"/>
				</g>
				<path style="fill:#FFFFFF;stroke:#263238;stroke-linecap:round;stroke-linejoin:round;stroke-miterlimit:10;" d="
					M637.66,379.418c0,0,0.278,2.115,0.002,3.504c-0.276,1.389-0.027,2.55-1.728,2.496c-1.701-0.054-2.052-1.105-2.052-1.105
					s-1.671,0.901-2.762-0.021c-1.09-0.922-1.561-2.394-1.571-2.712C629.54,381.262,637.66,379.418,637.66,379.418z"/>
				<g>
					<path style="fill:#92E3A9;stroke:#263238;stroke-linecap:round;stroke-linejoin:round;stroke-miterlimit:10;" d="
						M649.274,311.393c0,0-2.425-0.536-5.412,3.444c-2.987,3.98-14.503,22.505-16.174,29.8c-1.671,7.295,0.809,36.553,1.003,37.237
						c0.194,0.684,6.391,0.32,8.087-0.595c1.696-0.915,2.552-1.114,2.552-1.114s-0.098-14.311,0.464-18.467
						c0.561-4.156,0.728-4.334,0.853-5.89c0.124-1.556,15.417-25.655,16.188-28.611c0.771-2.956,1.412-4.527-0.423-8.092"/>
					<path style="fill:#FFFFFF;stroke:#263238;stroke-linecap:round;stroke-linejoin:round;stroke-miterlimit:10;" d="
						M636.777,381.279c1.696-0.915,2.552-1.114,2.552-1.114s-0.012-1.707-0.004-4.113c-2.758,0.862-8.027,1.349-10.967,1.565
						c0.15,2.461,0.284,4.089,0.332,4.257C628.884,382.558,635.081,382.194,636.777,381.279z"/>
				</g>
				<path style="fill:none;stroke:#263238;stroke-linecap:round;stroke-linejoin:round;stroke-miterlimit:10;" d="M667.255,377.105
					l-1.515-4.001c0,0-6.355,3.106-9.263,7.244"/>
				<path style="fill:none;stroke:#263238;stroke-linecap:round;stroke-linejoin:round;stroke-miterlimit:10;" d="M648.736,379.575
					c0,0,10.701-9.818,13.684-11.555c2.982-1.737,5.063,0.096,5.063,0.096"/>
				<path style="fill:none;stroke:#263238;stroke-linecap:round;stroke-linejoin:round;stroke-miterlimit:10;" d="M654.912,411.268
					c0,0-2.431,3.484-7.095,4.008c-4.664,0.524-9.099,0.281-9.099,0.281s2.06-19.291,1.912-28.141"/>
			</g>
		</g>
	</g>
</g>
<g id="Camel_2">
	<g>
		<path style="fill:none;stroke:#263238;stroke-width:2;stroke-linecap:round;stroke-linejoin:round;stroke-miterlimit:10;" d="
			M253.556,304.655c0,0,12.441,37.322,41.054,42.298c28.614,4.976,59.591-45.447,59.591-45.447"/>
		<g>
			<g>
				<path id="XMLID_6_" style="fill:#FFFFFF;stroke:#263238;stroke-linecap:round;stroke-linejoin:round;stroke-miterlimit:10;" d="
					M395.456,337.273c0,0-8.16,30.636-15.612,40.359c-7.451,9.723-14.16,17.203-16.678,29.009c-1.448,6.79-2.07,13.767-1.934,20.706
					c0.06,3.04,0.37,6.418,0.726,9.57c0.258,2.287,0.008,6.583,2.089,8.183c2.661,2.046,6.671,2.194,7.047,3.338
					c0.376,1.144,2.203,5.809,0.414,6.007c-3.215,0.353-11.937-0.542-12.674-4.193c-1.767-8.754-4.247-17.358-4.791-26.28
					c-0.447-7.341-2.54-16.481-2.378-23.835c0.138-6.274,10.87-12.465,10.706-20.382c-0.164-7.916-3.624-21.951-4.076-24.042
					c-0.452-2.09,3.25-20.022,12.046-29.448C379.137,316.838,396.778,324.873,395.456,337.273z"/>
				<path style="fill:#263238;stroke:#263238;stroke-linecap:round;stroke-linejoin:round;stroke-miterlimit:10;" d="
					M358.295,355.712c-0.452-2.09,3.25-20.022,12.046-29.448c8.796-9.426,26.436-1.392,25.114,11.008c0,0-4.103,15.397-9.146,27.825
					c-9.855,5.051-16.295,3.082-25.341,3.237C359.897,362.436,358.564,356.957,358.295,355.712z"/>
			</g>
			<g>
				<path style="fill:#FFFFFF;stroke:#263238;stroke-linecap:round;stroke-linejoin:round;stroke-miterlimit:10;" d="
					M456.722,421.146c-1.34,4.68-1.34,17.37-0.67,20.04c0.67,2.67,7.68,3.67,9.02,5.01c1.33,1.34,3,3.01,1.67,4.34
					c-1.34,1.34-10.36,0-12.36,0c-2.01,0-2.67-4.01-2.67-6.68c0-2.67,0.66-14.36,0.66-20.71c0-6.34,1.34-10.68,2.34-20.04
					c0.54-5.09,2.38-15.42,3.94-25.45c1.3-8.4,2.41-16.59,2.41-21.31c0-10.35,1.67-17.03,1.67-17.03s9.35-6.68,20.04,6.34
					c0,0-7.36,22.99-13.02,40.95c-2.78,8.82-5.14,16.43-6.02,19.51C461.062,415.466,458.052,416.466,456.722,421.146z"/>
			</g>
			<path style="fill:#263238;stroke:#263238;stroke-linecap:round;stroke-linejoin:round;stroke-miterlimit:10;" d="
				M482.772,345.656c0,0-7.36,22.99-13.02,40.95l-11.1-8.95c1.3-8.4,2.41-16.59,2.41-21.31c0-10.35,1.67-17.03,1.67-17.03
				S472.082,332.636,482.772,345.656z"/>
			<g>
				<path style="fill:#FFFFFF;stroke:#263238;stroke-linecap:round;stroke-linejoin:round;stroke-miterlimit:10;" d="
					M557.352,215.952c0,0-1.162-6.68-4.357-7.261c-3.195-0.581-6.099,4.066-3.776,6.68c2.324,2.614,4.066,4.357,4.066,4.357"/>
				<g>
					<path style="fill:#FFFFFF;stroke:#263238;stroke-linecap:round;stroke-linejoin:round;stroke-miterlimit:10;" d="
						M547.474,215.861c0,0-3.828,0.766-3.828,2.45c0,1.684,0.919,2.297,0,3.062c-0.919,0.766-2.297,1.225-2.297,2.45
						c0,1.225,0.306,3.368,0.306,3.368s-1.072,1.378-1.531,2.603c-0.459,1.225,0,3.828,0,3.828s-1.225,1.684-0.766,3.062
						c0.459,1.378,0,2.45-0.612,3.368c-0.613,0.919-1.531,1.684-1.531,3.368c0,1.684,0.612,1.837-0.306,3.521
						c-0.919,1.684-2.144,2.909-2.144,4.134c0,1.225,0.766,2.297,0.306,3.062c-0.459,0.766-1.225,0.766-1.378,2.297
						c-0.153,1.531,0,2.756-0.153,3.368c-0.153,0.612-2.297,2.45-2.297,3.062s0.306,2.297,0,2.909
						c-0.306,0.613-1.531,0.459-1.072,2.144c0.459,1.684-0.612,3.062-0.612,3.062s-0.153,1.378-0.306,1.99
						c-0.153,0.613-0.153,0.613-0.153,0.613s10.871-19.445,13.167-28.938c2.297-9.493,4.746-21.435,5.971-23.425
						c1.225-1.99,1.837-4.44,1.837-4.44L547.474,215.861z"/>
					
						<path id="XMLID_4_" style="fill:#FFFFFF;stroke:#263238;stroke-linecap:round;stroke-linejoin:round;stroke-miterlimit:10;" d="
						M326.83,399.092c0.96-1.861,7.403-6.967,13.425-15.825c6.022-8.858,7.906-18.129,8.32-22.267
						c0.413-4.138-0.691-19.212-1.66-27.872c-0.97-8.659-0.143-16.935-0.143-16.935s-3.831,20.596-6.357,29.354
						c-2.526,8.759,0.081,18.988,0.081,18.988s1.381,1.891,1.672,4.489c0.291,2.598-1.951,6.064-1.951,6.064
						s-2.114-2.402-2.469-5.578c-0.356-3.175,0.696-5.038,0.696-5.038s-1.741-9.798-0.464-17.192
						c0.995-5.76,5.015-23.066,6.71-28.809c1.695-5.743,3.674-16.778,3.674-16.778s10.322-25.909,30.363-36.366
						c20.041-10.456,54.024-14.232,73.774-11.327c19.751,2.905,31.078,16.265,38.92,21.203c7.842,4.938,13.942,8.132,22.074,8.132
						c8.133,0,16.265-9.004,20.331-21.493c4.066-12.489,9.585-35.144,9.585-35.144s2.033-9.294,5.809-11.327
						c3.776-2.033,17.717,0.871,22.655,3.195c4.938,2.324,15.103,6.39,15.103,6.39s13.122,2.036,13.412,8.716
						c0.067,1.536,0.054,2.857-0.005,3.98c-0.05,0.941,1.223,2.657,1.128,3.331c-0.286,2.023-2.046,1.98-2.046,1.98
						s0.158,2.965-1.576,3.957c-1.61,0.92-3.434-1.999-6.461-3.414c-3.259-0.837-7.372-1.814-9.971-1.414
						c-1.92,0.296-4.22,2.168-7.121,3.9c-2.988,2.273-9.79,8.034-12.537,15.184c-2.73,12.934-8.007,32.829-16.067,42.201
						c-12.489,14.522-24.398,22.365-30.207,27.593c-5.809,5.228-12.78,14.232-12.78,17.427c0,3.195-2.134,28.436,0.073,40.865
						c2.207,12.429,11.303,52.23,13.843,55.561c2.54,3.331,9.589,4.338,11.167,6.275c1.578,1.937,1.67,3.386,0.511,3.46
						c-1.159,0.074-12.174,0.774-12.174,0.774s-1.794-0.759-2.812-3.023c-1.017-2.264,0.717-7.03-1.441-8.931
						c-2.158-1.9-17.004-46.146-20.686-50.868c-3.682-4.722-3.036-15.302-5.784-22.789c-2.748-7.487-9.334-16.387-9.334-16.387
						s-5.022-6.39-11.122-9.875c-6.1-3.485-48.505-5.809-60.994-6.971c-12.489-1.162-20.547-3.36-20.547-3.36
						s-2.806,19.311-7.802,26.886c-4.997,7.574-20.114,28.165-26.045,36.235c-7.004,9.531-6.881,16.845-7.809,18.995
						c-0.928,2.15,1.843,23.625,1.494,28.874c-0.349,5.249,0.811,5.197,1.43,6.042c0.619,0.845,0.619,0.845,0.619,0.845
						s2.65,0.755,4.139,1.561c1.489,0.806,2.185,3.392,2.185,3.392l-1.096,1.502l-9.576,0.424c0,0-2.36-0.768-2.54-4.83
						c-0.18-4.062-2.025-15.289-5.854-28.596C328.765,411.15,325.87,400.953,326.83,399.092z"/>
					<path style="fill:#FFFFFF;stroke:#263238;stroke-linecap:round;stroke-linejoin:round;stroke-miterlimit:10;" d="
						M599.467,242.964c0,0-0.539-2.198-4.281-2.198"/>
					<path style="fill:none;stroke:#263238;stroke-linecap:round;stroke-linejoin:round;stroke-miterlimit:10;" d="M571.518,246.228
						c0.802-0.522,1.643-1.14,2.513-1.872"/>
					<path style="fill:none;stroke:#263238;stroke-linecap:round;stroke-linejoin:round;stroke-miterlimit:10;" d="M549.8,242.092
						c5.228,6.1,14.232,6.971,14.232,6.971s1.777-0.01,4.491-1.204"/>
					<g>
						<path style="fill:none;stroke:#263238;stroke-linecap:round;stroke-linejoin:round;stroke-miterlimit:10;" d="
							M577.419,225.347c0,0-3.427,2.665-9.901,2.665"/>
						<path style="fill:#263238;" d="M575.614,226.91c0,0-0.122,1.101-1.59,1.956c-1.467,0.856-3.057-0.978-3.057-0.978
							L575.614,226.91z"/>
					</g>
					<path style="fill:none;stroke:#263238;stroke-linecap:round;stroke-linejoin:round;stroke-miterlimit:10;" d="M596.545,234.689
						c0,0-0.28-0.839-2.518-1.586"/>
				</g>
				<path style="fill:#FFFFFF;stroke:#263238;stroke-linecap:round;stroke-linejoin:round;stroke-miterlimit:10;" d="
					M554.157,218.275c0,0-2.033-6.971-6.971-9.875c-4.938-2.905-5.809,3.195-4.647,5.809c1.162,2.614,8.133,5.519,8.133,5.519"/>
			</g>
			<path style="fill:none;stroke:#263238;stroke-width:2;stroke-linecap:round;stroke-linejoin:round;stroke-miterlimit:10;" d="
				M468.216,232.954c0,0,6.519,10.001,12.939,15.819c6.42,5.818,36.338,33.805,64.024,26.583
				c27.686-7.223,33.705-33.304,33.705-33.304"/>
			<g>
				<path style="fill:none;stroke:#263238;stroke-width:2;stroke-linecap:round;stroke-linejoin:round;stroke-miterlimit:10;" d="
					M583.202,222.923c0,0-3.776,12.199-3.776,20.622"/>
				<path style="fill:none;stroke:#263238;stroke-width:2;stroke-linecap:round;stroke-linejoin:round;stroke-miterlimit:10;" d="
					M579.426,237.736c0,0-27.128,1.581-39.617-5.099"/>
			</g>
			<path style="fill:#FFFFFF;stroke:#263238;stroke-linecap:round;stroke-linejoin:round;stroke-miterlimit:10;" d="
				M518.199,304.033H339.053c-1.546,0-2.799-1.253-2.799-2.799l0,0c0-1.546,1.253-2.799,2.799-2.799h179.146
				c1.546,0,2.799,1.253,2.799,2.799l0,0C520.998,302.779,519.745,304.033,518.199,304.033z"/>
			<g>
				<g>
					<g>
						<path style="fill:#92E3A9;stroke:#263238;stroke-linecap:round;stroke-linejoin:round;stroke-miterlimit:10;" d="
							M386.817,349.78c0,0-2.929,13.67-2.441,13.792c0.488,0.122,1.343-1.709,1.343-1.709s0.976,2.197,1.342,1.709
							c0.366-0.488,0.61-1.953,0.61-1.953s1.342,2.685,1.587,2.319c0.244-0.366,0.366-1.953,0.366-1.953s0.854,2.563,1.342,0.854
							c0.488-1.709-0.976-13.548-0.976-13.548L386.817,349.78z"/>
						<path style="fill:#92E3A9;stroke:#263238;stroke-linecap:round;stroke-linejoin:round;stroke-miterlimit:10;" d="
							M386.863,343.591c0,0-1.086,3.62-1.086,5.249c0,1.629,3.982,2.715,4.706,1.448s-1.267-7.783-1.267-7.783
							S387.225,341.419,386.863,343.591z"/>
					</g>
					<g>
						<path style="fill:#92E3A9;stroke:#263238;stroke-linecap:round;stroke-linejoin:round;stroke-miterlimit:10;" d="
							M397.089,351.241c0,0-2.929,13.67-2.441,13.792c0.488,0.122,1.343-1.709,1.343-1.709s0.976,2.197,1.342,1.709
							c0.366-0.488,0.61-1.953,0.61-1.953s1.342,2.685,1.587,2.319c0.244-0.366,0.366-1.953,0.366-1.953s0.854,2.563,1.342,0.854
							c0.488-1.709-0.976-13.548-0.976-13.548L397.089,351.241z"/>
						<path style="fill:#92E3A9;stroke:#263238;stroke-linecap:round;stroke-linejoin:round;stroke-miterlimit:10;" d="
							M397.135,345.052c0,0-1.086,3.62-1.086,5.249c0,1.629,3.982,2.715,4.706,1.448c0.724-1.267-1.267-7.783-1.267-7.783
							S397.497,342.88,397.135,345.052z"/>
					</g>
					<g>
						<path style="fill:#92E3A9;stroke:#263238;stroke-linecap:round;stroke-linejoin:round;stroke-miterlimit:10;" d="
							M405.936,353.682c0,0-2.929,13.67-2.441,13.792c0.488,0.122,1.342-1.709,1.342-1.709s0.976,2.197,1.343,1.709
							c0.366-0.488,0.61-1.953,0.61-1.953s1.343,2.685,1.587,2.319c0.244-0.366,0.366-1.953,0.366-1.953s0.854,2.563,1.343,0.854
							c0.488-1.709-0.976-13.547-0.976-13.547L405.936,353.682z"/>
						<path style="fill:#92E3A9;stroke:#263238;stroke-linecap:round;stroke-linejoin:round;stroke-miterlimit:10;" d="
							M405.983,347.493c0,0-1.086,3.62-1.086,5.249s3.982,2.715,4.706,1.448c0.724-1.267-1.267-7.783-1.267-7.783
							S406.345,345.321,405.983,347.493z"/>
					</g>
					<g>
						<path style="fill:#92E3A9;stroke:#263238;stroke-linecap:round;stroke-linejoin:round;stroke-miterlimit:10;" d="
							M415.394,353.377c0,0-2.929,13.67-2.441,13.792c0.488,0.122,1.342-1.709,1.342-1.709s0.976,2.197,1.343,1.709
							c0.366-0.488,0.61-1.953,0.61-1.953s1.343,2.685,1.587,2.319c0.244-0.366,0.366-1.953,0.366-1.953s0.854,2.563,1.343,0.854
							s-0.976-13.548-0.976-13.548L415.394,353.377z"/>
						<path style="fill:#92E3A9;stroke:#263238;stroke-linecap:round;stroke-linejoin:round;stroke-miterlimit:10;" d="
							M415.44,347.188c0,0-1.086,3.62-1.086,5.249c0,1.629,3.982,2.715,4.706,1.448c0.724-1.267-1.267-7.783-1.267-7.783
							S415.802,345.016,415.44,347.188z"/>
					</g>
					<g>
						<path style="fill:#92E3A9;stroke:#263238;stroke-linecap:round;stroke-linejoin:round;stroke-miterlimit:10;" d="
							M425.156,353.987c0,0-2.929,13.67-2.441,13.792c0.488,0.122,1.342-1.709,1.342-1.709s0.976,2.197,1.343,1.709
							c0.366-0.488,0.61-1.953,0.61-1.953s1.343,2.685,1.587,2.319c0.244-0.366,0.366-1.953,0.366-1.953s0.854,2.563,1.343,0.854
							s-0.976-13.547-0.976-13.547L425.156,353.987z"/>
						<path style="fill:#92E3A9;stroke:#263238;stroke-linecap:round;stroke-linejoin:round;stroke-miterlimit:10;" d="
							M425.203,347.798c0,0-1.086,3.62-1.086,5.249s3.982,2.715,4.706,1.448c0.724-1.267-1.267-7.783-1.267-7.783
							S425.565,345.626,425.203,347.798z"/>
					</g>
					<g>
						<path style="fill:#92E3A9;stroke:#263238;stroke-linecap:round;stroke-linejoin:round;stroke-miterlimit:10;" d="
							M433.699,353.987c0,0-2.929,13.67-2.441,13.792c0.488,0.122,1.342-1.709,1.342-1.709s0.976,2.197,1.343,1.709
							c0.366-0.488,0.61-1.953,0.61-1.953s1.343,2.685,1.587,2.319c0.244-0.366,0.366-1.953,0.366-1.953s0.854,2.563,1.343,0.854
							c0.488-1.709-0.976-13.547-0.976-13.547L433.699,353.987z"/>
						<path style="fill:#92E3A9;stroke:#263238;stroke-linecap:round;stroke-linejoin:round;stroke-miterlimit:10;" d="
							M433.745,347.798c0,0-1.086,3.62-1.086,5.249s3.982,2.715,4.706,1.448c0.724-1.267-1.267-7.783-1.267-7.783
							S434.107,345.626,433.745,347.798z"/>
					</g>
					<g>
						<path style="fill:#92E3A9;stroke:#263238;stroke-linecap:round;stroke-linejoin:round;stroke-miterlimit:10;" d="
							M443.461,353.377c0,0-2.929,13.67-2.441,13.792c0.488,0.122,1.343-1.709,1.343-1.709s0.976,2.197,1.343,1.709
							c0.366-0.488,0.61-1.953,0.61-1.953s1.343,2.685,1.587,2.319c0.244-0.366,0.366-1.953,0.366-1.953s0.854,2.563,1.343,0.854
							c0.488-1.709-0.976-13.548-0.976-13.548L443.461,353.377z"/>
						<path style="fill:#92E3A9;stroke:#263238;stroke-linecap:round;stroke-linejoin:round;stroke-miterlimit:10;" d="
							M443.508,347.188c0,0-1.086,3.62-1.086,5.249c0,1.629,3.982,2.715,4.706,1.448c0.724-1.267-1.267-7.783-1.267-7.783
							S443.87,345.016,443.508,347.188z"/>
					</g>
					<g>
						<path style="fill:#92E3A9;stroke:#263238;stroke-linecap:round;stroke-linejoin:round;stroke-miterlimit:10;" d="
							M452.614,353.682c0,0-2.929,13.67-2.441,13.792c0.488,0.122,1.343-1.709,1.343-1.709s0.976,2.197,1.342,1.709
							c0.366-0.488,0.61-1.953,0.61-1.953s1.342,2.685,1.587,2.319c0.244-0.366,0.366-1.953,0.366-1.953s0.854,2.563,1.342,0.854
							c0.488-1.709-0.976-13.547-0.976-13.547L452.614,353.682z"/>
						<path style="fill:#92E3A9;stroke:#263238;stroke-linecap:round;stroke-linejoin:round;stroke-miterlimit:10;" d="
							M452.66,347.493c0,0-1.086,3.62-1.086,5.249s3.982,2.715,4.706,1.448c0.724-1.267-1.267-7.783-1.267-7.783
							S453.023,345.321,452.66,347.493z"/>
					</g>
					<g>
						<path style="fill:#92E3A9;stroke:#263238;stroke-linecap:round;stroke-linejoin:round;stroke-miterlimit:10;" d="
							M462.987,352.767c0,0-2.929,13.67-2.441,13.792c0.488,0.122,1.343-1.709,1.343-1.709s0.976,2.197,1.342,1.709
							c0.366-0.488,0.61-1.953,0.61-1.953s1.342,2.685,1.587,2.319c0.244-0.366,0.366-1.953,0.366-1.953s0.854,2.563,1.342,0.854
							c0.488-1.709-0.976-13.548-0.976-13.548L462.987,352.767z"/>
						<path style="fill:#92E3A9;stroke:#263238;stroke-linecap:round;stroke-linejoin:round;stroke-miterlimit:10;" d="
							M463.033,346.578c0,0-1.086,3.62-1.086,5.249c0,1.629,3.982,2.715,4.706,1.448s-1.267-7.783-1.267-7.783
							S463.395,344.406,463.033,346.578z"/>
					</g>
					<g>
						<path style="fill:#92E3A9;stroke:#263238;stroke-linecap:round;stroke-linejoin:round;stroke-miterlimit:10;" d="
							M472.444,352.462c0,0-2.929,13.67-2.441,13.792c0.488,0.122,1.343-1.709,1.343-1.709s0.976,2.197,1.342,1.709
							c0.366-0.488,0.61-1.953,0.61-1.953s1.342,2.685,1.587,2.319c0.244-0.366,0.366-1.953,0.366-1.953s0.854,2.563,1.342,0.854
							c0.488-1.709-0.976-13.548-0.976-13.548L472.444,352.462z"/>
						<path style="fill:#92E3A9;stroke:#263238;stroke-linecap:round;stroke-linejoin:round;stroke-miterlimit:10;" d="
							M472.491,346.273c0,0-1.086,3.62-1.086,5.249c0,1.629,3.982,2.715,4.706,1.448s-1.267-7.783-1.267-7.783
							S472.853,344.101,472.491,346.273z"/>
					</g>
					<g>
						<path style="fill:#92E3A9;stroke:#263238;stroke-linecap:round;stroke-linejoin:round;stroke-miterlimit:10;" d="
							M482.817,352.767c0,0-2.929,13.67-2.441,13.792c0.488,0.122,1.343-1.709,1.343-1.709s0.976,2.197,1.342,1.709
							c0.366-0.488,0.61-1.953,0.61-1.953s1.342,2.685,1.587,2.319c0.244-0.366,0.366-1.953,0.366-1.953s0.854,2.563,1.342,0.854
							c0.488-1.709-0.976-13.548-0.976-13.548L482.817,352.767z"/>
						<path style="fill:#92E3A9;stroke:#263238;stroke-linecap:round;stroke-linejoin:round;stroke-miterlimit:10;" d="
							M482.864,346.578c0,0-1.086,3.62-1.086,5.249c0,1.629,3.982,2.715,4.706,1.448s-1.267-7.783-1.267-7.783
							S483.226,344.406,482.864,346.578z"/>
					</g>
					<g>
						<path style="fill:#92E3A9;stroke:#263238;stroke-linecap:round;stroke-linejoin:round;stroke-miterlimit:10;" d="
							M492.275,354.902c0,0-2.929,13.67-2.441,13.792c0.488,0.122,1.343-1.709,1.343-1.709s0.976,2.197,1.342,1.709
							c0.366-0.488,0.61-1.953,0.61-1.953s1.342,2.685,1.587,2.319c0.244-0.366,0.366-1.953,0.366-1.953s0.854,2.563,1.342,0.854
							c0.488-1.709-0.976-13.548-0.976-13.548L492.275,354.902z"/>
						<path style="fill:#92E3A9;stroke:#263238;stroke-linecap:round;stroke-linejoin:round;stroke-miterlimit:10;" d="
							M492.322,348.713c0,0-1.086,3.62-1.086,5.249c0,1.629,3.982,2.715,4.706,1.448s-1.267-7.783-1.267-7.783
							S492.684,346.541,492.322,348.713z"/>
					</g>
				</g>
				<g>
					<path style="fill:#92E3A9;stroke:#263238;stroke-linecap:round;stroke-linejoin:round;stroke-miterlimit:10;" d="
						M510.492,281.866c0,0-0.26,2.01-0.68,5.25c-0.05,0.39-0.1,0.79-0.16,1.22c-0.05,0.43-0.11,0.88-0.17,1.34
						c-0.06,0.4-0.11,0.81-0.17,1.23c-0.41,3.19-0.91,6.99-1.44,11.01c-0.05,0.36-0.1,0.72-0.15,1.08c-0.05,0.39-0.1,0.78-0.16,1.17
						c-0.04,0.36-0.09,0.73-0.14,1.09c-0.42,3.17-0.86,6.41-1.28,9.53c-0.06,0.41-0.12,0.82-0.18,1.22
						c-0.25,1.84-0.5,3.62-0.73,5.32c-0.06,0.39-0.11,0.77-0.17,1.15c-0.34,2.39-0.65,4.57-0.93,6.43c-0.05,0.33-0.1,0.64-0.14,0.95
						c-0.07,0.39-0.12,0.76-0.18,1.11c-0.51,3.22-0.97,6.36-1.38,9.25c-0.06,0.36-0.11,0.72-0.15,1.08
						c-0.06,0.39-0.12,0.78-0.17,1.16c-0.05,0.37-0.1,0.73-0.15,1.08c-0.66,4.75-1.13,8.5-1.34,10.3c-0.1,0.76-0.15,1.18-0.15,1.18
						s-0.43-0.16-1.22-0.43c-2.21-0.75-7.29-2.35-13.87-3.69c-0.33-0.08-0.66-0.14-1-0.21c-0.35-0.07-0.72-0.14-1.08-0.2
						c-0.05-0.02-0.09-0.02-0.14-0.03l-0.86-0.16c-0.05-0.01-0.09-0.02-0.14-0.02c-0.36-0.07-0.71-0.13-1.08-0.19
						c-0.33-0.06-0.66-0.11-1-0.16c-4.65-0.74-9.77-1.26-15.01-1.26c-0.51,0-1.01,0-1.5,0.01c-0.34,0-0.67,0-1,0.01
						c-0.37-0.01-0.73,0-1.09,0h-0.14l-0.86,0.01c-0.05,0-0.09,0.01-0.14,0c-0.37,0.01-0.73,0.02-1.09,0.03
						c-0.34,0-0.67,0.01-1,0.02c-6.19,0.13-11.66,0.42-16.56,0.69c-0.34,0.03-0.67,0.05-1,0.06c-0.37,0.02-0.73,0.04-1.08,0.06
						c-0.05,0.01-0.1,0.01-0.15,0.01c-0.29,0.02-0.58,0.04-0.86,0.05c-0.05,0-0.1,0.01-0.14,0.01c-0.37,0.02-0.73,0.04-1.09,0.06
						c-0.34,0.02-0.67,0.03-1,0.05c-4.52,0.24-8.49,0.39-12.05,0.27c-1.33-0.05-2.85-0.18-4.48-0.38c-0.33-0.04-0.66-0.08-1-0.12
						c-0.35-0.05-0.71-0.1-1.08-0.16c-0.05,0-0.1-0.01-0.15-0.02c-0.28-0.04-0.56-0.08-0.85-0.12c-0.04-0.01-0.09-0.02-0.14-0.02
						c-0.36-0.06-0.72-0.12-1.09-0.18c-0.33-0.05-0.66-0.11-0.99-0.16c-6.16-1.04-12.71-2.53-16.47-3.42
						c-0.36-0.09-0.69-0.17-0.99-0.24c-0.42-0.1-0.79-0.19-1.09-0.26c-0.05-0.02-0.1-0.03-0.14-0.04c-0.43-0.1-0.72-0.18-0.85-0.21
						c-0.05-0.01-0.08-0.02-0.08-0.02l0.07,0.4l0.6,3.28c0,0-0.23-0.04-0.66-0.17c-0.05-0.01-0.1-0.02-0.15-0.04
						c-0.29-0.08-0.65-0.2-1.08-0.35c-0.29-0.1-0.62-0.23-0.99-0.38c-1.7-0.68-4.12-1.83-7.14-3.74c-2.08-1.32-3.33-2.27-4.35-3.13
						c-0.28-0.24-0.55-0.47-0.81-0.69c-0.29-0.26-0.57-0.51-0.86-0.77c-0.26-0.22-0.52-0.45-0.81-0.7
						c-1.24-1.03-2.87-2.24-5.86-4.06c-1.03-0.63-2.11-1.55-3.22-2.69c-0.23-0.24-0.46-0.5-0.7-0.76c-0.25-0.27-0.49-0.55-0.73-0.84
						c-0.22-0.25-0.44-0.51-0.66-0.78c-3.23-3.98-6.46-9.3-8.99-13.93c-0.16-0.3-0.32-0.59-0.48-0.88
						c-0.17-0.32-0.34-0.64-0.51-0.95c-0.15-0.3-0.31-0.6-0.46-0.89c-1.76-3.39-2.98-6.07-3.29-7.01c-0.09-0.26-0.19-0.55-0.3-0.86
						c-0.17-0.46-0.36-0.98-0.57-1.52c-0.27-0.68-0.55-1.41-0.85-2.13c-0.32-0.8-0.65-1.6-0.95-2.32l0.12-5.74
						c0.3-0.51,0.65-1.08,1.04-1.71c0.17-0.28,0.35-0.57,0.55-0.87c0.34-0.56,0.71-1.15,1.11-1.76c1.29-1.99,2.84-4.25,4.57-6.56
						c0.19-0.27,0.39-0.53,0.61-0.8c0.21-0.29,0.43-0.58,0.66-0.87c0.21-0.26,0.42-0.53,0.63-0.79c2.47-3.08,5.22-6.09,8.08-8.47
						c0.75-0.63,1.54-1.24,2.34-1.82c0.33-0.26,0.67-0.5,1.02-0.74c0.36-0.26,0.73-0.51,1.1-0.75c0.04-0.04,0.09-0.07,0.14-0.1
						c0.29-0.19,0.58-0.38,0.87-0.57c0.05-0.03,0.1-0.06,0.15-0.09c0.36-0.24,0.73-0.46,1.1-0.69c3.37-2.07,6.91-3.84,10.27-5.32
						c0.41-0.18,0.82-0.36,1.23-0.53c0.39-0.16,0.77-0.32,1.14-0.47c4.68-1.93,8.81-3.24,11.37-3.95
						c6.01-1.67,30.06-3.67,40.08-4.34c10.02-0.67,22.71,1.67,30.73,6.34c0.32,0.19,0.65,0.39,0.98,0.59
						c0.32,0.2,0.64,0.4,0.96,0.61c2.94,1.91,6.06,4.32,9.17,6.73l0.04,0.03v0.01c0.36,0.27,0.71,0.55,1.07,0.83
						c0.04,0.03,0.08,0.07,0.13,0.11c0.29,0.21,0.57,0.44,0.85,0.66c0.05,0.03,0.1,0.07,0.14,0.11c0.36,0.27,0.71,0.54,1.07,0.82
						c0.33,0.25,0.66,0.51,0.99,0.76c3.42,2.61,6.72,4.98,9.65,6.45c1.33,0.66,2.68,1.28,4,1.86c0.39,0.16,0.78,0.33,1.17,0.49
						c0.44,0.18,0.88,0.36,1.3,0.53c0.41,0.17,0.82,0.33,1.21,0.48C507.152,280.896,510.492,281.866,510.492,281.866z"/>
					<g>
						<g>
							<g>
								<path style="fill:#263238;" d="M373.142,267.766c-0.05,0.03-0.1,0.06-0.14,0.1l-0.21,9.59l-10.47,5.76l-3.15-1.91
									c-0.22,0.27-0.42,0.53-0.61,0.8l3.5,2.12l0.23,0.14l0.78-0.43l10.69-5.87l0.02-0.01l0.23-10.86
									C373.722,267.386,373.432,267.576,373.142,267.766z"/>
							</g>
							<g>
								<path style="fill:#263238;" d="M370.882,269.355l-0.15,6.85l-8.36,4.6l-1.91-1.16c-0.21,0.26-0.42,0.53-0.63,0.79l2.51,1.52
									l9.38-5.15l0.18-8.19C371.552,268.855,371.212,269.096,370.882,269.355z"/>
							</g>
						</g>
						<g>
							<g>
								<path style="fill:#263238;" d="M373.242,290.096l-10.17-6.16l-0.23-0.14l-0.78,0.43l-8.07,4.44l-2.64,1.45l-0.06,2.89
									l-0.12,5.74c0.3,0.72,0.63,1.52,0.95,2.32l0.21-9.77l0.01-0.58l0.54-0.29l9.94-5.47l10.23,6.19l-0.26,11.96l-10.47,5.75
									l-9.35-5.66c0.21,0.54,0.4,1.06,0.57,1.52l8.52,5.16l0.23,0.14l0.78-0.43l10.68-5.87l0.03-0.02l0.28-13.1L373.242,290.096z"
									/>
							</g>
							<g>
								<path style="fill:#263238;" d="M362.792,286.206l-9.38,5.16l-0.22,10.7l9.15,5.54l9.38-5.15l0.23-10.7L362.792,286.206z
									 M370.732,301.855l-8.36,4.6l-8.17-4.95l0.2-9.54l8.37-4.6l8.17,4.94L370.732,301.855z"/>
							</g>
						</g>
						<g>
							<g>
								<path style="fill:#263238;" d="M373.252,315.746l-10.18-6.16l-0.23-0.14l-0.78,0.43l-4.93,2.71
									c0.15,0.29,0.31,0.59,0.46,0.89l5.23-2.87l10.23,6.19l-0.26,11.95l-3.83,2.11c0.24,0.26,0.47,0.52,0.7,0.76l4.09-2.26
									l0.03-0.01l0.28-13.11L373.252,315.746z"/>
							</g>
							<g>
								<path style="fill:#263238;" d="M362.792,311.855l-4.69,2.57c0.16,0.29,0.32,0.58,0.48,0.88l4.19-2.3l8.17,4.95l-0.21,9.55
									l-3.16,1.73c0.22,0.27,0.44,0.53,0.66,0.78l3.49-1.92l0.23-10.7L362.792,311.855z"/>
							</g>
						</g>
					</g>
					<g>
						<g>
							<g>
								<path style="fill:#263238;" d="M395.092,264.456l-7.19-4.36c-0.37,0.15-0.75,0.31-1.14,0.47l8.14,4.94l-0.25,11.95
									l-10.48,5.76l-10.22-6.2l0.21-9.91c-0.05,0.03-0.1,0.06-0.15,0.09c-0.29,0.19-0.58,0.38-0.87,0.57l-0.2,9.81l0.82,0.49
									l10.16,6.16l0.23,0.14l0.78-0.43l10.68-5.86l0.03-0.02l0.27-13.11L395.092,264.456z"/>
							</g>
							<g>
								<path style="fill:#263238;" d="M385.532,261.096l-0.88-0.53l-9.38,5.15l-0.01,0.7l-0.21,10l9.15,5.54l9.38-5.15l0.22-10.7
									L385.532,261.096z M392.592,276.206l-8.37,4.6l-8.16-4.95l0.2-9.54l8.37-4.6l8.16,4.95L392.592,276.206z"/>
							</g>
						</g>
						<g>
							<g>
								<path style="fill:#263238;" d="M395.102,290.105l-10.17-6.17l-0.23-0.14l-0.78,0.43l-10.68,5.87l-0.03,0.02l-0.27,13.11
									l0.81,0.49l10.17,6.16l0.23,0.14l0.78-0.43l10.67-5.87l0.04-0.02l0.27-13.1L395.102,290.105z M384.172,308.855l-10.22-6.19
									l0.25-11.95l10.48-5.76l10.22,6.19l-0.25,11.96L384.172,308.855z"/>
							</g>
							<g>
								<path style="fill:#263238;" d="M384.652,286.206l-9.38,5.16l-0.22,10.7l9.15,5.54l9.38-5.15l0.22-10.7L384.652,286.206z
									 M392.592,301.855l-8.37,4.6l-8.16-4.95l0.2-9.54l8.37-4.6l8.16,4.94L392.592,301.855z"/>
							</g>
						</g>
						<g>
							<g>
								<path style="fill:#263238;" d="M395.102,315.746l-10.17-6.16l-0.23-0.14l-0.78,0.43l-10.67,5.87l-0.04,0.02l-0.27,13.1
									l0.81,0.49l10.17,6.17l0.23,0.14l0.78-0.43l10.68-5.87l0.03-0.02l0.27-13.11L395.102,315.746z M384.172,334.506l-10.22-6.19
									l0.25-11.96l10.48-5.75l10.22,6.19l-0.25,11.95L384.172,334.506z"/>
							</g>
							<g>
								<path style="fill:#263238;" d="M384.652,311.855l-9.38,5.15l-0.22,10.7l9.15,5.55l9.38-5.16l0.22-10.7L384.652,311.855z
									 M392.592,327.506l-8.37,4.59l-8.16-4.94l0.2-9.55l8.37-4.6l8.16,4.95L392.592,327.506z"/>
							</g>
						</g>
						<g>
							<g>
								<path style="fill:#263238;" d="M395.852,344.886l0.06-3l-0.82-0.49l-10.16-6.16l-0.23-0.14l-0.78,0.43l-5.18,2.84
									c0.29,0.25,0.55,0.48,0.81,0.7l5.13-2.82l10.22,6.2l-0.12,5.68c0.05,0.02,0.1,0.03,0.15,0.04L395.852,344.886z"/>
							</g>
							<g>
								<path style="fill:#263238;" d="M384.652,337.506l-4.24,2.33c0.26,0.22,0.53,0.45,0.81,0.69l3.41-1.87l8.16,4.95l-0.08,3.79
									c0.37,0.15,0.7,0.28,0.99,0.38l0.1-4.73L384.652,337.506z"/>
							</g>
						</g>
					</g>
					<g>
						<g>
							<g>
								<path style="fill:#263238;" d="M416.952,264.446l-10.39-6.29l-11.47,6.3l-0.02,0.01l-0.28,13.11l0.82,0.5l10.16,6.15
									l0.23,0.14l0.79-0.43l10.68-5.87l0.02-0.01l0.28-13.11L416.952,264.446z M406.032,283.216l-10.23-6.2l0.25-11.95l10.48-5.76
									l10.23,6.2l-0.25,11.95L406.032,283.216z"/>
							</g>
							<g>
								<path style="fill:#263238;" d="M406.502,260.566l-9.37,5.15l-0.23,10.7l9.16,5.54l9.37-5.15l0.23-10.7L406.502,260.566z
									 M414.452,276.206l-8.37,4.6l-8.17-4.95l0.21-9.54l8.36-4.6l8.17,4.95L414.452,276.206z"/>
							</g>
						</g>
						<g>
							<g>
								<path style="fill:#263238;" d="M416.952,290.096l-10.16-6.16l-0.23-0.14l-0.79,0.43l-10.67,5.88l-0.03,0.01l-0.28,13.11
									l0.81,0.49l10.17,6.16l0.23,0.14l0.79-0.43l10.67-5.87l0.03-0.02l0.28-13.1L416.952,290.096z M406.032,308.855l-10.23-6.19
									l0.25-11.95l10.48-5.76l10.23,6.19l-0.25,11.96L406.032,308.855z"/>
							</g>
							<g>
								<path style="fill:#263238;" d="M406.502,286.206l-9.37,5.16l-0.23,10.7l9.16,5.54l9.37-5.15l0.23-10.7L406.502,286.206z
									 M414.452,301.855l-8.37,4.6l-8.17-4.95l0.21-9.54l8.36-4.6l8.17,4.94L414.452,301.855z"/>
							</g>
						</g>
						<g>
							<g>
								<path style="fill:#263238;" d="M416.962,315.746l-10.17-6.16l-0.23-0.14l-0.79,0.43l-10.67,5.87l-0.03,0.02l-0.28,13.1
									l0.82,0.5l10.16,6.16l0.23,0.14l0.79-0.43l10.67-5.88l0.03-0.01l0.28-13.11L416.962,315.746z M406.032,334.506l-10.23-6.19
									l0.25-11.96l10.48-5.75l10.23,6.19l-0.25,11.95L406.032,334.506z"/>
							</g>
							<g>
								<path style="fill:#263238;" d="M406.502,311.855l-9.37,5.15l-0.23,10.7l9.16,5.55l9.37-5.16l0.23-10.7L406.502,311.855z
									 M414.452,327.506l-8.37,4.59l-8.17-4.94l0.21-9.55l8.36-4.6l8.17,4.95L414.452,327.506z"/>
							</g>
						</g>
						<g>
							<g>
								<path style="fill:#263238;" d="M394.932,348.166l0.06-3.11l0.01-0.38l0.07-3.27l0.02-0.01l10.68-5.87l0.79-0.43l0.23,0.14
									l10.16,6.15l0.82,0.5l-0.16,7.44c-0.28-0.04-0.56-0.08-0.85-0.12c-0.04-0.01-0.09-0.02-0.14-0.02l0.14-6.74l-10.23-6.2
									l-10.48,5.76l-0.06,2.92c-0.05-0.02-0.1-0.03-0.14-0.04L394.932,348.166z"/>
							</g>
							<g>
								<path style="fill:#263238;" d="M406.502,337.506l-9.37,5.15l-0.05,2.53c0.3,0.07,0.63,0.15,0.99,0.24l0.05-2.17l8.36-4.6
									l8.17,4.95l-0.11,5.24c0.33,0.05,0.66,0.11,0.99,0.16l0.13-5.96L406.502,337.506z"/>
							</g>
						</g>
					</g>
					<g>
						<g>
							<g>
								<path style="fill:#263238;" d="M438.802,264.456l-10.39-6.3l-11.46,6.29l-0.03,0.02l-0.27,13.11l0.82,0.49l10.16,6.16
									l0.23,0.14l0.78-0.43l10.68-5.86l0.03-0.02l0.27-13.11L438.802,264.456z M427.882,283.216l-10.22-6.2l0.25-11.95l10.48-5.76
									l10.22,6.2l-0.25,11.95L427.882,283.216z"/>
							</g>
							<g>
								<path style="fill:#263238;" d="M428.362,260.566l-9.38,5.15l-0.22,10.7l9.15,5.54l9.38-5.15l0.22-10.7L428.362,260.566z
									 M436.302,276.206l-8.37,4.6l-8.16-4.95l0.2-9.54l8.37-4.6l8.16,4.95L436.302,276.206z"/>
							</g>
						</g>
						<g>
							<g>
								<path style="fill:#263238;" d="M438.812,290.105l-10.17-6.17l-0.23-0.14l-0.78,0.43l-10.68,5.87l-0.03,0.02l-0.27,13.11
									l0.81,0.49l10.17,6.16l0.23,0.14l0.78-0.43l10.67-5.87l0.04-0.02l0.27-13.1L438.812,290.105z M427.882,308.855l-10.22-6.19
									l0.25-11.95l10.48-5.76l10.22,6.19l-0.25,11.96L427.882,308.855z"/>
							</g>
							<g>
								<path style="fill:#263238;" d="M428.362,286.206l-9.38,5.16l-0.22,10.7l9.15,5.54l9.38-5.15l0.22-10.7L428.362,286.206z
									 M436.302,301.855l-8.37,4.6l-8.16-4.95l0.2-9.54l8.37-4.6l8.16,4.94L436.302,301.855z"/>
							</g>
						</g>
						<g>
							<g>
								<path style="fill:#263238;" d="M438.812,315.746l-10.17-6.16l-0.23-0.14l-0.78,0.43l-10.67,5.87l-0.04,0.02l-0.27,13.1
									l0.81,0.49l10.17,6.17l0.23,0.14l0.78-0.43l10.68-5.87l0.03-0.02l0.27-13.11L438.812,315.746z M427.882,334.506l-10.22-6.19
									l0.25-11.96l10.48-5.75l10.22,6.19l-0.25,11.95L427.882,334.506z"/>
							</g>
							<g>
								<path style="fill:#263238;" d="M428.362,311.855l-9.38,5.15l-0.22,10.7l9.15,5.55l9.38-5.16l0.22-10.7L428.362,311.855z
									 M436.302,327.506l-8.37,4.59l-8.16-4.94l0.2-9.55l8.37-4.6l8.16,4.95L436.302,327.506z"/>
							</g>
						</g>
						<g>
							<g>
								<path style="fill:#263238;" d="M439.462,349.566l0.16-7.68l-0.82-0.49l-10.16-6.16l-0.23-0.14l-0.78,0.43l-10.68,5.86
									l-0.03,0.02l-0.16,7.8c0.29,0.04,0.57,0.08,0.85,0.12c0.05,0.01,0.1,0.02,0.15,0.02l0.15-7.34l10.48-5.76l10.22,6.2
									l-0.15,7.18c0.04,0,0.09-0.01,0.14-0.01L439.462,349.566z"/>
							</g>
							<g>
								<path style="fill:#263238;" d="M428.362,337.506l-9.38,5.15l-0.14,6.85c0.34,0.04,0.67,0.08,1,0.12l0.13-6.37l8.37-4.6
									l8.16,4.95l-0.13,6.13c0.33-0.02,0.66-0.03,1-0.05l0.14-6.64L428.362,337.506z"/>
							</g>
						</g>
					</g>
					<g>
						<g>
							<g>
								<path style="fill:#263238;" d="M460.662,264.446l-10.39-6.29l-11.47,6.3l-0.02,0.01l-0.28,13.11l0.82,0.5l10.17,6.15
									l0.23,0.14l0.78-0.43l10.68-5.86l0.03-0.02l0.27-13.11L460.662,264.446z M449.742,283.216l-10.23-6.2l0.26-11.95l10.47-5.76
									l10.23,6.2l-0.25,11.95L449.742,283.216z"/>
							</g>
							<g>
								<path style="fill:#263238;" d="M450.222,260.566l-9.38,5.15l-0.23,10.7l9.16,5.54l9.38-5.15l0.22-10.7L450.222,260.566z
									 M458.162,276.206l-8.37,4.6l-8.17-4.95l0.21-9.54l8.36-4.6l8.17,4.95L458.162,276.206z"/>
							</g>
						</g>
						<g>
							<g>
								<path style="fill:#263238;" d="M460.662,290.096l-10.16-6.16l-0.23-0.14l-0.78,0.43l-10.68,5.88l-0.03,0.01l-0.28,13.11
									l0.81,0.49l10.18,6.16l0.23,0.14l0.78-0.43l10.67-5.87l0.04-0.02l0.27-13.1L460.662,290.096z M449.742,308.855l-10.23-6.19
									l0.26-11.95l10.47-5.76l10.23,6.19l-0.25,11.96L449.742,308.855z"/>
							</g>
							<g>
								<path style="fill:#263238;" d="M450.222,286.206l-9.38,5.16l-0.23,10.7l9.16,5.54l9.38-5.15l0.22-10.7L450.222,286.206z
									 M458.162,301.855l-8.37,4.6l-8.17-4.95l0.21-9.54l8.36-4.6l8.17,4.94L458.162,301.855z"/>
							</g>
						</g>
						<g>
							<g>
								<path style="fill:#263238;" d="M460.672,315.746l-10.17-6.16l-0.23-0.14l-0.78,0.43l-10.68,5.87l-0.03,0.02l-0.28,13.1
									l0.82,0.5l10.17,6.16l0.23,0.14l0.78-0.43l10.68-5.87l0.03-0.02l0.27-13.11L460.672,315.746z M449.742,334.506l-10.23-6.19
									l0.26-11.96l10.47-5.75l10.23,6.19l-0.25,11.95L449.742,334.506z"/>
							</g>
							<g>
								<path style="fill:#263238;" d="M450.222,311.855l-9.38,5.15l-0.23,10.7l9.16,5.55l9.38-5.16l0.22-10.7L450.222,311.855z
									 M458.162,327.506l-8.37,4.59l-8.17-4.94l0.21-9.55l8.36-4.6l8.17,4.95L458.162,327.506z"/>
							</g>
						</g>
						<g>
							<g>
								<path style="fill:#263238;" d="M461.342,348.686l0.14-6.8l-0.82-0.5l-10.16-6.15l-0.23-0.14l-0.78,0.43l-10.69,5.87
									l-0.02,0.01l-0.18,8.21l0.86-0.05c0.05,0,0.1,0,0.15-0.01l0.16-7.55l10.47-5.76l10.23,6.2l-0.13,6.25
									c0.05,0.01,0.09,0,0.14,0L461.342,348.686z"/>
							</g>
							<g>
								<path style="fill:#263238;" d="M450.222,337.506l-9.38,5.15l-0.15,6.84c0.33-0.01,0.66-0.03,1-0.06l0.14-6.18l8.36-4.6
									l8.17,4.95l-0.11,5.14c0.33-0.01,0.66-0.02,1-0.02l0.12-5.68L450.222,337.506z"/>
							</g>
						</g>
					</g>
					<g>
						<g>
							<g>
								<path style="fill:#263238;" d="M482.432,267.056c-0.05-0.04-0.09-0.08-0.13-0.11l-0.23,10.51l-10.47,5.76l-10.23-6.2
									l0.25-11.95l10.4-5.72c-0.32-0.21-0.64-0.41-0.96-0.61l-10.4,5.71l-0.03,0.02l-0.27,13.11l0.82,0.5l10.16,6.15l0.23,0.14
									l0.78-0.43l10.68-5.86l0.03-0.02l0.22-10.34C483.002,267.496,482.722,267.266,482.432,267.056z"/>
							</g>
							<g>
								<path style="fill:#263238;" d="M481.192,266.076l-9.12-5.51l-9.38,5.15l-0.22,10.7l9.15,5.54l9.38-5.15l0.23-10.69v-0.01
									L481.192,266.076z M480.012,276.206l-8.36,4.6l-8.17-4.95l0.2-9.54l8.37-4.6l8.16,4.95L480.012,276.206z"/>
							</g>
						</g>
						<g>
							<g>
								<path style="fill:#263238;" d="M482.522,290.096l-10.17-6.16l-0.23-0.14l-0.78,0.43l-10.68,5.87l-0.03,0.02l-0.27,13.11
									l0.81,0.49l10.17,6.16l0.23,0.14l0.78-0.43l10.67-5.87l0.04-0.02l0.28-13.1L482.522,290.096z M482.072,303.105l-10.47,5.75
									l-10.23-6.19l0.25-11.95l10.48-5.76l10.23,6.19L482.072,303.105z"/>
							</g>
							<g>
								<path style="fill:#263238;" d="M472.072,286.206l-9.38,5.16l-0.22,10.7l9.15,5.54l9.38-5.15l0.23-10.7L472.072,286.206z
									 M480.012,301.855l-8.36,4.6l-8.17-4.95l0.2-9.54l8.37-4.6l8.16,4.94L480.012,301.855z"/>
							</g>
						</g>
						<g>
							<g>
								<path style="fill:#263238;" d="M482.532,315.746l-10.18-6.16l-0.23-0.14l-0.78,0.43l-10.67,5.87l-0.04,0.02l-0.27,13.1
									l0.82,0.5l10.16,6.16l0.23,0.14l0.78-0.43l10.68-5.87l0.03-0.02l0.28-13.11L482.532,315.746z M482.072,328.746l-10.47,5.76
									l-10.23-6.19l0.25-11.96l10.48-5.75l10.23,6.19L482.072,328.746z"/>
							</g>
							<g>
								<path style="fill:#263238;" d="M472.072,311.855l-9.38,5.15l-0.22,10.7l9.15,5.55l9.38-5.16l0.23-10.7L472.072,311.855z
									 M480.012,327.506l-8.36,4.59l-8.17-4.94l0.2-9.55l8.37-4.6l8.16,4.95L480.012,327.506z"/>
							</g>
						</g>
						<g>
							<g>
								<path style="fill:#263238;" d="M482.522,341.386l-10.17-6.15l-0.23-0.14l-0.78,0.43l-10.68,5.86l-0.03,0.02l-0.15,7.29
									l0.86-0.01h0.14l0.14-6.68l10.48-5.76l10.23,6.2l-0.17,7.83c0.05,0,0.09,0.01,0.14,0.02l0.86,0.16l0.18-8.57
									L482.522,341.386z"/>
							</g>
							<g>
								<path style="fill:#263238;" d="M472.072,337.506l-9.38,5.15l-0.12,6.03c0.33-0.01,0.66-0.01,1-0.01l0.11-5.42l8.37-4.6
									l8.16,4.95l-0.13,6.32c0.34,0.05,0.67,0.1,1,0.16l0.15-7.04L472.072,337.506z"/>
							</g>
						</g>
					</g>
					<g>
						<g>
							<g>
								<path style="fill:#263238;" d="M483.282,267.716c0.05,0.03,0.1,0.07,0.14,0.11l-0.19,9.19l10.22,6.2l8.15-4.48
									c0.41,0.17,0.82,0.33,1.21,0.48l-8.6,4.72l-0.78,0.43l-0.23-0.14l-10.17-6.15l-0.82-0.5l0.22-10.52L483.282,267.716z"/>
							</g>
							<g>
								<path style="fill:#263238;" d="M499.132,277.716l-5.63,3.09l-8.16-4.95l0.14-6.45c-0.33-0.25-0.66-0.51-0.99-0.76
									l-0.16,7.77l9.15,5.54l6.82-3.75C499.912,278.046,499.522,277.876,499.132,277.716z"/>
							</g>
						</g>
						<g>
							<g>
								<path style="fill:#263238;" d="M504.382,290.105l-10.17-6.17l-0.23-0.14l-0.78,0.43l-10.68,5.87l-0.03,0.02l-0.28,13.11
									l0.81,0.49l10.18,6.16l0.23,0.14l0.78-0.43l10.67-5.87l0.04-0.02l0.27-13.1L504.382,290.105z M493.452,308.855l-10.22-6.19
									l0.25-11.95l10.48-5.76l10.22,6.19l-0.25,11.96L493.452,308.855z"/>
							</g>
							<g>
								<path style="fill:#263238;" d="M493.932,286.206l-9.38,5.16l-0.22,10.7l9.15,5.54l9.38-5.15l0.22-10.7L493.932,286.206z
									 M501.872,301.855l-8.37,4.6l-8.16-4.95l0.2-9.54l8.37-4.6l8.16,4.94L501.872,301.855z"/>
							</g>
						</g>
						<g>
							<g>
								<path style="fill:#263238;" d="M504.382,315.746l-10.17-6.16l-0.23-0.14l-0.78,0.43l-10.67,5.87l-0.04,0.02l-0.28,13.1
									l0.82,0.5l10.17,6.16l0.23,0.14l0.78-0.43l9.78-5.38l0.9-0.49l0.03-0.02l0.14-6.87l0.13-6.24L504.382,315.746z
									 M503.932,328.746l-10.48,5.76l-10.22-6.19l0.25-11.96l10.48-5.75l10.22,6.19L503.932,328.746z"/>
							</g>
							<g>
								<path style="fill:#263238;" d="M493.932,311.855l-9.38,5.15l-0.22,10.7l9.15,5.55l9.38-5.16l0.22-10.7L493.932,311.855z
									 M501.872,327.506l-8.37,4.59l-8.16-4.94l0.2-9.55l8.37-4.6l8.16,4.95L501.872,327.506z"/>
							</g>
						</g>
						<g>
							<g>
								<path style="fill:#263238;" d="M482.302,350.296l0.19-8.89l0.03-0.02l10.68-5.86l0.78-0.43l0.23,0.14l8.22,4.98
									c-0.06,0.36-0.11,0.72-0.15,1.08l-8.32-5.05l-10.48,5.76l-0.18,8.48c-0.05-0.02-0.09-0.02-0.14-0.03L482.302,350.296z"/>
							</g>
							<g>
								<path style="fill:#263238;" d="M499.252,354.586c0.79,0.27,1.22,0.43,1.22,0.43s0.05-0.42,0.15-1.18L499.252,354.586z
									 M493.932,337.506l-9.38,5.15l-0.17,8.03c0.34,0.07,0.67,0.13,1,0.21l0.16-7.64l8.37-4.6l8.05,4.88
									c0.05-0.35,0.1-0.71,0.15-1.08L493.932,337.506z"/>
							</g>
						</g>
					</g>
					<g>
						<g>
							<g>
								<path style="fill:#263238;" d="M509.652,288.336c0.06-0.43,0.11-0.83,0.16-1.22l-5.43,2.99l-0.03,0.01l-0.28,13.11
									l0.81,0.49l2.54,1.54c0.05-0.36,0.1-0.73,0.14-1.09l-2.48-1.5l0.25-11.95L509.652,288.336z"/>
							</g>
							<g>
								<path style="fill:#263238;" d="M509.312,290.906c0.06-0.42,0.11-0.83,0.17-1.23l-3.07,1.69l-0.23,10.7l1.54,0.93
									c0.05-0.36,0.1-0.72,0.15-1.08l-0.68-0.41l0.2-9.54L509.312,290.906z"/>
							</g>
						</g>
						<g>
							<g>
								<path style="fill:#263238;" d="M504.382,315.746l-0.03,0.02l-0.28,13.1l0.06,0.04l0.76,0.46l0.03-0.02l0.14-6.87
									c0.06-0.38,0.11-0.76,0.17-1.15l0.1-4.97l0.63-0.35c0.06-0.4,0.12-0.81,0.18-1.22L504.382,315.746z"/>
							</g>
						</g>
					</g>
				</g>
			</g>
			<path style="fill:#263238;stroke:#263238;stroke-linecap:round;stroke-linejoin:round;stroke-miterlimit:10;" d="
				M478.872,268.248c0,0-2.743-29.62-8.228-31.814c-5.485-2.194-5.759,6.582-5.759,11.793c0,5.211-0.823,5.211-0.823,5.211
				s-11.519-4.662-29.895-4.662c-2.176,0-4.37,0.122-6.554,0.331c-0.037-0.196-8.747,1.102-8.762,1.263
				c-12.799,2.405-23.725,6.602-26.097,5.812c-3.291-1.097-4.663-21.667-8.502-21.941c-3.84-0.274,0.549,23.587-0.823,26.604
				c-1.371,3.017-2.822,0.469-4.702,4.486c-1.88,4.017,1.137,4.291,6.348,3.194c5.211-1.097,24.684-9.051,46.899-9.051
				s31.815,3.565,37.848,7.68C475.855,271.265,479.42,270.716,478.872,268.248z"/>
		</g>
	</g>
</g>
<g id="Camel_1">
	<g>
		<g>
			<path id="XMLID_8_" style="fill:#FFFFFF;stroke:#263238;stroke-linecap:round;stroke-linejoin:round;stroke-miterlimit:10;" d="
				M127.455,328.22c0,0,6.346,31.063,4.008,43.087c-2.338,12.024-5.01,21.71-2.004,33.401c3.006,11.69,12.692,26.721,14.696,30.061
				c2.004,3.34-0.334,4.342,3.006,4.676c3.34,0.334,7.014,0.334,7.682,1.336c0.668,1.002,3.674,5.01,2.004,5.678
				c-1.67,0.668-12.024,0.334-13.026-0.334c-1.002-0.668-2.672-7.348-2.672-7.348s-3.006-4.342-5.678-8.35
				c-2.672-4.008-14.028-20.04-16.7-25.719c-2.672-5.678,1.67-16.7-2.004-23.715c-3.674-7.014-13.026-18.036-14.362-19.706
				c-1.336-1.67-6.012-19.372-2.338-31.731C103.741,317.197,123.113,316.529,127.455,328.22z"/>
			<path style="fill:#263238;stroke:#263238;stroke-linecap:round;stroke-linejoin:round;stroke-miterlimit:10;" d="
				M102.405,361.286c-1.336-1.67-6.012-19.372-2.338-31.731c3.674-12.358,23.047-13.026,27.389-1.336c0,0,3.187,15.612,4.211,28.985
				c-6.572,8.913-13.215,10.02-21.244,14.19C106.835,366.592,103.2,362.28,102.405,361.286z"/>
		</g>
		<g>
			<path id="XMLID_7_" style="fill:#FFFFFF;stroke:#263238;stroke-linecap:round;stroke-linejoin:round;stroke-miterlimit:10;" d="
				M227.658,344.252c0,0-16.366,51.103-19.038,60.455c-2.672,9.352-5.678,10.354-7.014,15.03c-1.336,4.676-1.336,17.368-0.668,20.04
				c0.668,2.672,7.682,3.674,9.018,5.01c1.336,1.336,3.006,3.006,1.67,4.342c-1.336,1.336-10.354,0-12.358,0
				c-2.004,0-2.672-4.008-2.672-6.68c0-2.672,0.668-14.362,0.668-20.708c0-6.346,1.336-10.688,2.338-20.041
				c1.002-9.352,6.346-36.407,6.346-46.761c0-10.354,1.67-17.034,1.67-17.034S216.969,331.226,227.658,344.252z"/>
			<path style="fill:#263238;stroke:#263238;stroke-linecap:round;stroke-linejoin:round;stroke-miterlimit:10;" d="
				M207.617,337.906c0,0,9.352-6.68,20.04,6.346c0,0-2.33,7.275-5.374,16.835c-3.429-1.711-8.72-3.678-16.361-4.897
				c0.015-0.437,0.025-0.859,0.025-1.25C205.947,344.586,207.617,337.906,207.617,337.906z"/>
		</g>
		<g>
			<path style="fill:#FFFFFF;stroke:#263238;stroke-linecap:round;stroke-linejoin:round;stroke-miterlimit:10;" d="M302.24,214.544
				c0,0-1.162-6.68-4.357-7.261c-3.195-0.581-6.099,4.066-3.776,6.68c2.324,2.614,4.066,4.357,4.066,4.357"/>
			<g>
				<path style="fill:#FFFFFF;stroke:#263238;stroke-linecap:round;stroke-linejoin:round;stroke-miterlimit:10;" d="
					M292.362,214.453c0,0-3.828,0.766-3.828,2.45c0,1.684,0.919,2.297,0,3.062c-0.919,0.766-2.297,1.225-2.297,2.45
					c0,1.225,0.306,3.368,0.306,3.368s-1.072,1.378-1.531,2.603c-0.459,1.225,0,3.828,0,3.828s-1.225,1.684-0.766,3.062
					c0.459,1.378,0,2.45-0.612,3.368c-0.612,0.919-1.531,1.684-1.531,3.368s0.612,1.837-0.306,3.521
					c-0.919,1.684-2.143,2.909-2.143,4.134c0,1.225,0.766,2.297,0.306,3.062c-0.459,0.766-1.225,0.766-1.378,2.297
					c-0.153,1.531,0,2.756-0.153,3.368c-0.153,0.613-2.297,2.45-2.297,3.062s0.306,2.297,0,2.909
					c-0.306,0.612-1.531,0.459-1.072,2.143c0.459,1.684-0.612,3.062-0.612,3.062s-0.153,1.378-0.306,1.99
					c-0.153,0.613-0.153,0.613-0.153,0.613s10.871-19.445,13.167-28.938c2.297-9.493,4.746-21.435,5.971-23.425
					c1.225-1.99,1.837-4.44,1.837-4.44L292.362,214.453z"/>
				<path id="XMLID_5_" style="fill:#FFFFFF;stroke:#263238;stroke-linecap:round;stroke-linejoin:round;stroke-miterlimit:10;" d="
					M61.457,392.589c1.162-1.743,8.133-6.099,15.103-14.232c6.971-8.132,9.875-17.136,10.747-21.203
					c0.871-4.066,1.452-19.17,1.452-27.883s1.743-16.846,1.743-16.846s-6.099,20.041-9.585,28.464
					c-3.485,8.423-2.033,18.879-2.033,18.879s1.162,2.033,1.162,4.647c0,2.614-2.614,5.809-2.614,5.809s-1.833-2.623-1.833-5.818
					c0-3.195,1.252-4.929,1.252-4.929s-0.639-9.931,1.452-17.137c1.63-5.613,7.552-22.365,9.875-27.883
					c2.324-5.519,5.519-16.265,5.519-16.265s9.875-23.817,29.916-34.273c20.041-10.456,54.024-14.232,73.774-11.328
					c19.751,2.904,31.078,16.265,38.92,21.203c7.842,4.938,13.942,8.132,22.074,8.132s16.265-9.004,20.331-21.493
					c4.066-12.489,9.585-35.144,9.585-35.144s2.033-9.294,5.809-11.327c3.776-2.033,17.717,0.871,22.655,3.195
					c4.938,2.324,15.103,6.39,15.103,6.39s13.122,2.036,13.412,8.716c0.067,1.536,0.054,2.857-0.005,3.98
					c-0.05,0.941,1.223,2.657,1.128,3.331c-0.286,2.023-2.046,1.98-2.046,1.98s0.158,2.965-1.576,3.956
					c-1.609,0.92-3.434-1.999-6.461-3.414c-3.259-0.837-7.372-1.814-9.971-1.414c-1.921,0.296-4.22,2.168-7.121,3.899
					c-2.988,2.273-9.79,8.034-12.537,15.184c-2.73,12.934-8.007,32.829-16.067,42.201c-12.489,14.522-24.398,22.365-30.207,27.593
					c-5.809,5.228-12.78,14.232-12.78,17.427c0,3.195,7.261,36.016,12.199,47.634c4.938,11.618,23.569,47.952,25.892,51.438
					c2.324,3.485,9.294,4.938,10.747,6.971c1.452,2.033,1.452,3.485,0.29,3.485s-12.199,0-12.199,0s-1.743-0.871-2.614-3.195
					c-0.871-2.324,1.162-6.971-0.871-9.004c-2.033-2.033-23.569-40.982-28.216-44.757c-4.647-3.776-6.39-14.232-10.747-20.912
					c-4.357-6.68-17.427-26.721-17.427-26.721s-8.713-6.39-14.813-9.875c-6.1-3.485-48.505-5.809-60.994-6.971
					c-12.489-1.162-23.817-1.743-23.817-1.743s-4.938,18.879-10.747,25.85c-5.809,6.971-23.124,25.751-29.916,33.111
					c-8.021,8.692-8.714,15.975-9.875,18.008c-1.162,2.033-1.162,24.979-1.743,30.207c-0.581,5.228,0.581,5.228,1.162,6.099
					s0.581,0.871,0.581,0.871s2.614,0.871,4.066,1.743c1.452,0.871,2.033,3.485,2.033,3.485l-1.162,1.452h-9.585
					c0,0-2.324-0.871-2.324-4.938c0-4.066-0.871-17.137-3.195-30.788C62.038,404.788,60.296,394.332,61.457,392.589z"/>
				<path style="fill:#FFFFFF;stroke:#263238;stroke-linecap:round;stroke-linejoin:round;stroke-miterlimit:10;" d="
					M344.355,241.555c0,0-0.539-2.198-4.281-2.198"/>
				<path style="fill:none;stroke:#263238;stroke-linecap:round;stroke-linejoin:round;stroke-miterlimit:10;" d="M316.406,244.82
					c0.802-0.522,1.643-1.14,2.513-1.872"/>
				<path style="fill:none;stroke:#263238;stroke-linecap:round;stroke-linejoin:round;stroke-miterlimit:10;" d="M294.688,240.684
					c5.228,6.099,14.232,6.971,14.232,6.971s1.777-0.01,4.491-1.204"/>
				<g>
					<path style="fill:none;stroke:#263238;stroke-linecap:round;stroke-linejoin:round;stroke-miterlimit:10;" d="M322.306,223.939
						c0,0-3.427,2.665-9.901,2.665"/>
					<path style="fill:#263238;" d="M320.502,225.502c0,0-0.122,1.101-1.59,1.956c-1.467,0.856-3.057-0.978-3.057-0.978
						L320.502,225.502z"/>
				</g>
				<path style="fill:none;stroke:#263238;stroke-linecap:round;stroke-linejoin:round;stroke-miterlimit:10;" d="M341.433,233.281
					c0,0-0.28-0.839-2.518-1.586"/>
			</g>
			<path style="fill:#FFFFFF;stroke:#263238;stroke-linecap:round;stroke-linejoin:round;stroke-miterlimit:10;" d="
				M299.045,216.867c0,0-2.033-6.971-6.971-9.875c-4.938-2.905-5.809,3.195-4.647,5.809c1.162,2.614,8.133,5.519,8.133,5.519"/>
		</g>
		<path style="fill:none;stroke:#263238;stroke-width:2;stroke-linecap:round;stroke-linejoin:round;stroke-miterlimit:10;" d="
			M323.772,240.644c0,0-6.019,26.081-33.705,33.304c-27.686,7.223-57.604-20.765-64.024-26.583
			c-6.42-5.818-20.174-23.155-20.174-23.155"/>
		<g>
			<path style="fill:none;stroke:#263238;stroke-width:2;stroke-linecap:round;stroke-linejoin:round;stroke-miterlimit:10;" d="
				M328.09,221.514c0,0-3.776,12.199-3.776,20.622"/>
			<path style="fill:none;stroke:#263238;stroke-width:2;stroke-linecap:round;stroke-linejoin:round;stroke-miterlimit:10;" d="
				M324.314,236.327c0,0-27.128,1.581-39.617-5.099"/>
		</g>
		<path style="fill:#FFFFFF;stroke:#263238;stroke-linecap:round;stroke-linejoin:round;stroke-miterlimit:10;" d="M267.678,303.246
			H88.532c-1.546,0-2.799-1.253-2.799-2.799l0,0c0-1.546,1.253-2.799,2.799-2.799h179.146c1.546,0,2.799,1.253,2.799,2.799l0,0
			C270.478,301.993,269.224,303.246,267.678,303.246z"/>
		<path style="fill:#92E3A9;stroke:#263238;stroke-linecap:round;stroke-linejoin:round;stroke-miterlimit:10;" d="M255.38,280.457
			c0,0-4.676,36.407-6.68,49.099c-2.004,12.692-3.34,24.049-3.34,24.049s-17.034-6.346-35.405-6.346
			c-18.37,0-31.063,1.67-40.749,1.336c-9.686-0.334-29.393-5.344-29.393-5.344l0.668,3.674c0,0-3.674-0.668-10.02-4.676
			c-6.346-4.008-5.01-4.676-12.692-9.352s-18.036-25.719-19.038-28.725c-1.002-3.006-4.008-10.02-4.008-10.02
			s8.684-16.032,18.704-24.383c10.02-8.35,24.716-13.36,30.728-15.03c6.012-1.67,30.061-3.674,40.081-4.342
			c10.02-0.668,22.712,1.67,30.729,6.346c8.016,4.676,17.702,14.028,25.051,17.702C247.364,278.118,255.38,280.457,255.38,280.457z"
			/>
		<g>
			<path style="fill:#263238;" d="M169.206,348.594c-0.791-0.027-1.654-0.088-2.563-0.173l0.527-96.656
				c2.397-0.22,4.769-0.425,7.017-0.61l-0.531,97.465C172.107,348.645,170.62,348.643,169.206,348.594z"/>
			<path style="fill:#263238;" d="M188.73,250.3c2.283,0.04,4.637,0.213,6.996,0.515l-6.019,97.051
				c-2.488,0.133-4.833,0.269-7.052,0.39L188.73,250.3z"/>
			<path style="fill:#263238;" d="M225.604,264.305c2.16,1.68,4.317,3.375,6.416,4.94l-10.544,78.77
				c-2.26-0.284-4.603-0.502-6.993-0.63L225.604,264.305z"/>
			<path style="fill:#263238;" d="M136.822,345.663l-5.419-86.389c2.448-1.046,4.785-1.942,6.86-2.669l5.495,87.602
				c-2.414-0.568-3.945-0.957-3.945-0.957l0.668,3.674C140.482,346.924,139.187,346.684,136.822,345.663z"/>
			<path style="fill:#263238;" d="M204.942,347.303c-2.46,0.04-4.815,0.104-7.063,0.187l8.945-94.256
				c2.441,0.779,4.736,1.703,6.783,2.766L204.942,347.303z"/>
			<path style="fill:#263238;" d="M248.238,278.01l-10.385,73.269c-1.985-0.538-4.298-1.11-6.85-1.65l10.551-74.44
				C243.864,276.276,246.178,277.227,248.238,278.01z"/>
			<path style="fill:#263238;" d="M101.403,283.518v26.455c-1.424-2.811-2.398-4.982-2.672-5.803
				c-1.002-3.006-4.008-10.02-4.008-10.02S97.361,289.284,101.403,283.518z"/>
			<path style="fill:#263238;" d="M106.26,318.768l-1.95-39.206c2.031-2.631,4.281-5.261,6.647-7.559l2.854,57.4
				C111.239,326.551,108.601,322.661,106.26,318.768z"/>
			<path style="fill:#263238;" d="M147.411,254.063c1.914-0.324,4.311-0.652,6.984-0.973l3.408,94.063
				c-2.402-0.43-4.819-0.911-7.07-1.387L147.411,254.063z"/>
			<path style="fill:#263238;" d="M118.843,265.834c2.258-1.454,4.608-2.778,6.953-3.961c0.208,18.411,0.948,50.411,1.682,78.337
				c-2.672-2.006-3.361-3.159-7.17-5.701C119.72,311.988,119.063,284.348,118.843,265.834z"/>
		</g>
		<path style="fill:#263238;stroke:#263238;stroke-linecap:round;stroke-linejoin:round;stroke-miterlimit:10;" d="M223.76,266.839
			c0,0-2.743-29.62-8.228-31.814c-5.485-2.194-5.76,6.582-5.76,11.793c0,5.211-0.823,5.211-0.823,5.211s-11.519-4.662-29.895-4.662
			c-2.176,0-4.37,0.122-6.555,0.331c-0.037-0.196-8.747,1.102-8.762,1.263c-12.798,2.405-23.725,6.602-26.097,5.811
			c-3.291-1.097-4.663-21.667-8.502-21.941c-3.84-0.274,0.549,23.587-0.823,26.604c-1.371,3.017-2.822,0.469-4.702,4.486
			c-1.88,4.017,1.137,4.291,6.348,3.194c5.211-1.097,24.684-9.051,46.899-9.051c22.215,0,31.814,3.565,37.848,7.679
			C220.743,269.856,224.308,269.308,223.76,266.839z"/>
	</g>
</g>
<g id="Character_2">
	<g>
		<path style="fill:#263238;stroke:#263238;stroke-linecap:round;stroke-linejoin:round;stroke-miterlimit:10;" d="M418.11,162.522
			c0,0-0.109,5.648-2.389,9.558c-2.281,3.91-12.273,12.382-11.73,24.112c0.543,11.73,9.775,14.011,13.577,13.794
			c3.802-0.217,12.491-4.996,10.753-10.753c-1.738-5.757-1.195-8.689,0.652-17.487c1.846-8.798-0.109-21.071-0.543-22.7
			C427.994,157.417,418.11,161.762,418.11,162.522z"/>
		<g>
			<path style="fill:#FFFFFF;stroke:#263238;stroke-linecap:round;stroke-linejoin:round;stroke-miterlimit:10;" d="
				M422.963,288.826c0,0-0.19-1.76-1.945-0.005s-5.089,8.249-5.967,12.987s0.176,6.142,0.878,5.792
				c0.702-0.351,1.603-2.072,1.603-2.072s1.907-6.176,3.838-10.388S422.963,288.826,422.963,288.826z"/>
			<path style="fill:#FFFFFF;stroke:#263238;stroke-linecap:round;stroke-linejoin:round;stroke-miterlimit:10;" d="
				M446.459,239.312c0,0,26.371,13.186,26.552,15.607c0.381,5.107-3.518,7.892-3.518,7.892l-41.971,34.687
				c0,0-8.426,6.594-9.99,8.028c-1.564,1.434-1.823,1.441-1.839-1.244c-0.017-2.685,5.886-14.879,7.271-15.457
				c1.385-0.577,2.54,0.346,4.04-0.231c1.501-0.577,2.956-0.177,6.65-3.986c3.694-3.81,18.577-21.493,20.424-24.148
				c1.847-2.655,4.387-4.618,4.387-4.618s-20.809,1.102-33.392-2.939c-12.583-4.04-16.328-7.486-16.302-9.573
				c0.025-2.087,1.526-5.435,6.721-7.974c5.195-2.54,13.276-3.002,17.778-1.732C437.771,234.895,446.459,239.312,446.459,239.312z"
				/>
			<path style="fill:none;stroke:#263238;stroke-linecap:round;stroke-linejoin:round;stroke-miterlimit:10;" d="M458.464,255.843
				c0,0,3.463-2.424,6.696-2.424"/>
			<path style="fill:#92E3A9;stroke:#263238;stroke-linecap:round;stroke-linejoin:round;stroke-miterlimit:10;" d="
				M441.618,236.976c-2.748-1.271-6.08-2.71-8.35-3.351c-4.502-1.27-12.583-0.808-17.778,1.732c-5.195,2.54-6.696,5.888-6.721,7.974
				c-0.025,2.032,3.551,5.354,15.357,9.258C425.227,247.826,429.012,238.134,441.618,236.976z"/>
			<path style="fill:#FFFFFF;stroke:#263238;stroke-linecap:round;stroke-linejoin:round;stroke-miterlimit:10;" d="
				M428.683,288.117c-0.621,0.189-1.148,0.273-1.68,0.478c-0.21,0.081-0.412,0.127-0.61,0.158c-0.669,2.441-1.217,6.169,0.221,9.458
				c0.557-0.437,0.907-0.712,0.907-0.712l0.714-0.59C427.102,293.713,428.056,289.971,428.683,288.117z"/>
			<g>
				<path style="fill:#FFFFFF;stroke:#263238;stroke-linecap:round;stroke-linejoin:round;stroke-miterlimit:10;" d="
					M415.576,307.37c-0.178,0-0.357-0.047-0.521-0.146c-0.472-0.288-0.62-0.904-0.332-1.375c2.005-3.278,10.922-10.158,11.301-10.45
					c0.438-0.337,1.064-0.256,1.402,0.184c0.336,0.438,0.255,1.065-0.184,1.402c-2.497,1.921-9.309,7.447-10.813,9.907
					C416.242,307.2,415.913,307.37,415.576,307.37z"/>
			</g>
		</g>
		<path style="fill:#263238;stroke:#263238;stroke-linecap:round;stroke-linejoin:round;stroke-miterlimit:10;" d="M440.425,216.461
			l19.075,13.398c0,0,4.996-2.725,6.586-2.498s0.681,4.315,0.681,4.315s-4.769,2.498-5.677,2.498
			c-0.908,0-15.442-6.131-19.075-7.494c-3.633-1.363-4.996-2.044-4.996-2.044L440.425,216.461z"/>
		<path style="fill:#FFFFFF;stroke:#263238;stroke-linecap:round;stroke-linejoin:round;stroke-miterlimit:10;" d="M433.968,175.121
			c0,0-0.434,4.888,0,7.929c0.434,3.041,7.277,14.554,8.037,18.247c0.76,3.693-0.76,6.517-0.76,6.517s3.259,26.936,3.476,27.588
			c0.217,0.652,1.738,3.91,1.738,3.91s-6.951-3.91-9.992-4.779c-3.041-0.869-2.389-0.652-9.667,0
			c-7.277,0.652-17.27,6.843-17.487,7.494c-0.217,0.652-0.543,1.303-0.543,1.303s-0.978-1.846-0.109-4.996
			c0.869-3.15,4.67-14.446,5.756-17.595c1.086-3.15,2.064-6.626,2.172-10.318c0.109-3.693-3.041-10.536-2.172-17.487
			c0.869-6.951,3.91-8.472,6.3-8.689c2.389-0.217,5.431-3.476,5.757-5.757c0.326-2.281-0.869-10.21-0.869-10.21
			S430.927,173.927,433.968,175.121z"/>
		<path style="fill:#FFFFFF;stroke:#263238;stroke-linecap:round;stroke-linejoin:round;stroke-miterlimit:10;" d="M433.968,183.05
			c-0.434-3.041,0-7.929,0-7.929c-3.041-1.195-8.363-6.843-8.363-6.843s1.195,7.929,0.869,10.21
			c-0.21,1.468-1.545,3.336-3.106,4.543c0.505,0.141,1.193,0.596,1.911,1.866c1.412,2.498,8.689,8.037,9.992,7.603
			c0.688-0.229,1.041-1.848,1.223-3.328C435.191,186.514,434.131,184.189,433.968,183.05z"/>
		<path style="fill:#FFFFFF;stroke:#263238;stroke-linecap:round;stroke-linejoin:round;stroke-miterlimit:10;" d="M440.919,158.069
			c0,0,0.652,3.15,0.543,4.019s-0.869,2.607-0.869,2.607s2.607,2.715,2.715,3.367c0.109,0.652-2.064,1.955-2.064,1.955
			s-0.977,5.648-1.521,6.191c-0.543,0.543-3.041,0.652-7.06-0.652c-4.019-1.303-6.082-3.91-6.517-4.67
			c-0.435-0.76-0.978-1.629-0.978-1.629s-1.412,0.326-2.607-1.195s-1.629-4.236-0.543-4.888c1.086-0.652,2.172,1.303,3.259,0.76
			c1.086-0.543,1.955-4.345,1.955-4.345S434.62,156.657,440.919,158.069z"/>
		<path style="fill:#92E3A9;stroke:#263238;stroke-linecap:round;stroke-linejoin:round;stroke-miterlimit:10;" d="M418.002,164.694
			c0,0,12.273-8.037,22.918-6.626c0,0,0.543-3.367-0.652-6.408c-1.195-3.041-6.3-6.191-12.925-4.345
			c-6.625,1.846-13.577,8.146-12.816,11.296C415.286,161.762,418.002,164.694,418.002,164.694z"/>
		<path style="fill:#263238;" d="M438.421,163.934c0,0.72-0.292,1.303-0.652,1.303s-0.652-0.583-0.652-1.303
			c0-0.72,0.292-1.303,0.652-1.303S438.421,163.214,438.421,163.934z"/>
		<path style="fill:none;stroke:#263238;stroke-linecap:round;stroke-linejoin:round;stroke-miterlimit:10;" d="M435.706,168.93
			c0,0,0.869,1.412,3.258,1.521"/>
		<path style="fill:none;stroke:#263238;stroke-linecap:round;stroke-linejoin:round;stroke-miterlimit:10;" d="M436.466,161.219
			c0,0,0.869-1.738,2.933-0.434"/>
		<path style="fill:none;stroke:#263238;stroke-linecap:round;stroke-linejoin:round;stroke-miterlimit:10;" d="M418.838,231.663
			c0,0,7.735-0.693,9.697-0.346c1.962,0.346,7.388,1.616,7.388,1.616"/>
		
			<line style="fill:none;stroke:#263238;stroke-linecap:round;stroke-linejoin:round;stroke-miterlimit:10;" x1="429.69" y1="229.354" x2="435.231" y2="231.085"/>
		<g>
			<path style="fill:#FFFFFF;stroke:#263238;stroke-linecap:round;stroke-linejoin:round;stroke-miterlimit:10;" d="M436.495,217.21
				c0,0-8.84-23.743-11.098-26.791c-2.258-3.048-7.678-2.484-8.919,2.823c-1.242,5.307,11.549,29.501,13.13,30.63
				c1.581,1.129,25.403,10.274,27.774,10.952c2.371,0.677,5.194,1.468,6.436,0.903c1.242-0.564,3.839-2.936,5.532-2.936
				c1.694,0,2.371,0.79,2.71-0.339c0.339-1.129-1.355-2.032-2.936-3.952c-1.581-1.919-8.694,3.161-9.145,3.387
				C459.528,232.113,436.495,217.21,436.495,217.21z"/>
			<path style="fill:#FFFFFF;stroke:#263238;stroke-linecap:round;stroke-linejoin:round;stroke-miterlimit:10;" d="
				M425.398,190.419c-2.258-3.048-7.678-2.484-8.919,2.823c-0.581,2.482,1.605,8.226,4.259,13.752l0.006-0.002
				c0,0,4.808-3.794,10.101-4.657C428.764,197.201,426.482,191.883,425.398,190.419z"/>
		</g>
	</g>
</g>
<g id="Character_1">
	<g>
		<path style="fill:#FFFFFF;stroke:#263238;stroke-linecap:round;stroke-linejoin:round;stroke-miterlimit:10;" d="M199.584,304.575
			c0,0-1.52-0.234-1.637,1.053c-0.117,1.286,0.936,1.52,1.52,1.637c0.585,0.117,6.081,0.585,11.226,1.403
			c5.145,0.819,8.186-0.234,9.706-1.403c1.52-1.169,0.936-3.625,0.117-3.157c-0.819,0.468-1.286,1.988-7.601,1.169
			c-6.315-0.819-11.928-1.637-11.928-1.637L199.584,304.575z"/>
		<path style="fill:#FFFFFF;stroke:#263238;stroke-linecap:round;stroke-linejoin:round;stroke-miterlimit:10;" d="M187.422,242.012
			c0,0,17.424,10.291,17.892,12.279c0.468,1.988,2.339,43.969,2.339,43.969s8.303,5.145,9.355,5.379
			c1.052,0.234,3.625-0.702,3.508,0.468c-0.117,1.169-0.936,1.637-2.456,2.222c-1.52,0.585-4.911,0.702-7.718,0.702
			c-2.806,0-10.524-1.637-10.758-2.456c-0.234-0.819,0.702-3.391,0.702-6.198c0-2.806-0.818-6.783-1.52-8.77
			c-0.702-1.988-5.379-11.577-6.432-16.839c-1.052-5.262,0.702-12.629,0.702-12.629s-11.694,0.117-19.061-0.819
			s-18.242-7.952-18.242-7.952s12.629-9.94,16.839-11.928C176.781,237.451,187.422,242.012,187.422,242.012z"/>
		<path style="fill:#FFFFFF;stroke:#263238;stroke-linecap:round;stroke-linejoin:round;stroke-miterlimit:10;" d="M184.966,217.221
			c0,0,3.739,13.589,5.447,18.03c1.708,4.441,5.807,9.223,5.807,9.223s4.099,1.366,5.807,3.416c1.708,2.049,1.708,2.049,1.708,2.049
			s-3.605-0.193-5.807,0.342c-2.202,0.534-8.068-7.443-11.208-10.724c-3.139-3.281-5.872-23.093-5.872-23.093L184.966,217.221z"/>
		<path style="fill:#92E3A9;stroke:#263238;stroke-linecap:round;stroke-linejoin:round;stroke-miterlimit:10;" d="M173.506,184.127
			c0,0-0.585,3.274,0.585,5.964c1.169,2.69,7.25,11.811,8.887,14.384c1.637,2.573,1.988,11.694,1.988,12.746
			c0,1.052,1.403,20.698,1.754,22.335c0.351,1.637,0.702,2.456,0.702,2.456l-9.823-2.456c0,0-14.617,8.654-17.658,10.525
			c-3.04,1.871-5.842,4.121-8.531,2.717c-2.69-1.403-4.444-3.859-4.21-5.262c0.234-1.403,9.817-24.117,10.168-25.053
			c0.351-0.936-1.637-3.976-1.403-5.847c0.234-1.871,0.468-1.754,0.117-3.391c-0.351-1.637-1.637-10.174-0.351-14.383
			c1.286-4.21,3.859-5.964,6.081-7.601c2.222-1.637,1.871-9.472,1.637-10.291c-0.234-0.819,0.351-1.286,0.702-1.52
			C164.502,179.215,173.506,184.127,173.506,184.127z"/>
		<path style="fill:#FFFFFF;stroke:#263238;stroke-linecap:round;stroke-linejoin:round;stroke-miterlimit:10;" d="M178.652,203.773
			c0.403-0.576,0.55-2.853,0.597-5.058c-2.155-3.352-4.48-7.066-5.157-8.624c-1.169-2.69-0.585-5.964-0.585-5.964
			s-9.004-4.912-9.355-4.678c-0.351,0.234-0.935,0.702-0.702,1.52c0.135,0.471,0.305,3.27,0.004,5.872
			c0.217,1.455,0.488,2.642,0.698,3.132c0,0,3.859,0.351,6.549,4.093C173.389,197.809,177.833,204.942,178.652,203.773z"/>
		<path style="fill:#FFFFFF;stroke:#263238;stroke-linecap:round;stroke-linejoin:round;stroke-miterlimit:10;" d="M174.874,215.954
			c0,0-6.328-17.997-9.55-20.172c-3.222-2.175-7.765,0.387-8.968,6.709c-1.203,6.323,14.213,27.593,15.415,28.107
			c1.202,0.514,26.216-10.809,26.216-10.809s0.994,1.426,1.662,2.178c0.668,0.752,4.714,2.995,4.714,2.995s-0.208,0.912,0.538,1.322
			c0.746,0.41,1.896,1.153,2.28,0.521c0.384-0.632,1.843-2.818,1.657-3.58s-4.894-4.835-6.08-5.945
			c-1.186-1.11-4.088-1.533-5.28-1.565c-1.192-0.032-21.969,2.183-21.969,2.183L174.874,215.954z"/>
		<path style="fill:none;stroke:#263238;stroke-linecap:round;stroke-linejoin:round;stroke-miterlimit:10;" d="M159.59,241.076
			c0,0,12.512-4.21,15.085-4.093c2.573,0.117,5.613,1.637,5.613,1.637"/>
		<path style="fill:none;stroke:#263238;stroke-linecap:round;stroke-linejoin:round;stroke-miterlimit:10;" d="M169.998,235.931
			c0,0,4.561-0.819,7.601,0.117"/>
		<path style="fill:#FFFFFF;stroke:#263238;stroke-linecap:round;stroke-linejoin:round;stroke-miterlimit:10;" d="M206.753,278.964
			c-0.549-11.322-1.191-23.619-1.439-24.673c-0.468-1.988-17.892-12.279-17.892-12.279s-10.642-4.561-14.851-2.573
			c-4.21,1.988-18.705,14.061-18.705,14.061s12.741,4.884,20.108,5.819c7.367,0.935,19.061,0.819,19.061,0.819
			s-1.754,7.367-0.702,12.629c0.441,2.205,1.52,5.168,2.675,8.015L206.753,278.964z"/>
		<path style="fill:#FFFFFF;stroke:#263238;stroke-linecap:round;stroke-linejoin:round;stroke-miterlimit:10;" d="M207.536,307.03
			c0,0,2.923-2.339,4.21-3.625c1.286-1.286,2.573-1.286,2.573-1.286l2.69,1.52c0,0-1.871,0-3.157,0.935
			c-1.286,0.936-3.508,2.456-3.508,2.456H207.536z"/>
		<g>
			<path style="fill:#FFFFFF;stroke:#263238;stroke-linecap:round;stroke-linejoin:round;stroke-miterlimit:10;" d="M188.64,162.476
				c0,0,1.541,0.154-0.462,2.773c-2.003,2.619-8.936,6.008-8.936,6.008l-3.389-4.006C175.852,167.252,184.326,162.63,188.64,162.476
				z"/>
			<path style="fill:#FFFFFF;stroke:#263238;stroke-linecap:round;stroke-linejoin:round;stroke-miterlimit:10;" d="M179.47,165.3
				c0,0,1.052,3.391,1.052,4.911c0,1.52-0.351,3.508,0.468,4.677s1.637,1.988,1.052,2.573c-0.585,0.585-2.105,1.403-2.105,1.403
				s-2.222,5.379-2.807,6.081c-0.585,0.702-2.456,0.585-4.093,0.234c-1.637-0.351-6.432-2.222-7.835-2.924
				c-1.403-0.702-3.742-10.875-3.742-10.875S171.986,166.82,179.47,165.3z"/>
			<path style="fill:#263238;stroke:#263238;stroke-linecap:round;stroke-linejoin:round;stroke-miterlimit:10;" d="
				M164.736,170.094c0,0,2.924,9.472,3.157,13.448c0.234,3.976-0.468,7.016-1.988,8.186c-1.52,1.169-7.718,4.678-8.186,4.911
				c-0.468,0.234-4.444-1.053-5.73-5.379c-1.286-4.327,2.69-8.887,3.859-10.992s1.403-7.25,1.403-7.25L164.736,170.094z"/>
			<path style="fill:#FFFFFF;stroke:#263238;stroke-linecap:round;stroke-linejoin:round;stroke-miterlimit:10;" d="
				M157.057,174.801l23.11-10.785c0,0-2.619-6.471-4.776-8.011c-2.157-1.541-8.165-2.311-12.171,0
				c-4.006,2.311-9.244,8.628-8.628,10.476C155.208,168.331,157.057,174.801,157.057,174.801z"/>
			<path style="fill:#263238;stroke:#263238;stroke-linecap:round;stroke-linejoin:round;stroke-miterlimit:10;" d="
				M180.523,170.211c0,0-7.952-0.936-9.472,0.936c-1.52,1.871,2.222,6.198,4.561,5.613c2.339-0.585,4.678-4.444,4.678-4.444
				s0.234,1.871,0.702,2.573c0.468,0.702,1.052,1.169,1.052,1.169s1.52-3.04,1.52-4.678
				C183.563,169.743,180.523,170.211,180.523,170.211z"/>
			<path style="fill:#FFFFFF;stroke:#263238;stroke-linecap:round;stroke-linejoin:round;stroke-miterlimit:10;" d="
				M180.166,164.017c0,0,3.852-1.541,6.162-1.541c2.311,0,2.311,0,2.311,0s-8.473,3.081-10.785,4.93
				c-2.311,1.849-5.392,3.852-7.703,4.16c-2.311,0.308-6.779,0.462-6.779,0.462L180.166,164.017z"/>
			<path style="fill:none;stroke:#263238;stroke-linecap:round;stroke-linejoin:round;stroke-miterlimit:10;" d="M173.857,178.631
				c0,0,0.468,2.105,2.923,1.754"/>
		</g>
	</g>
</g>
</svg>
